<!DOCTYPE svg PUBLIC "-//W3C//DTD SVG 1.1//EN" "https://www.w3.org/Graphics/SVG/1.1/DTD/svg11.dtd"><svg xmlns="http://www.w3.org/2000/svg" class="sc-jlGgGc czlKLP graph" data-testid="graph" role="img" aria-labelledby="polymath-graph-title" width="1322" height="1098"><title id="polymath-graph-title">Workflow Studio State Machine Graph</title><g transform="translate(12,12)" class="new-look-graph"><g class="nodes"><g class="node-container" transform="translate(649,22)"><g><circle class="sc-leSDtu iQVBKq shape" r="22"/><text class="sc-fbKhjd kfGofs label"><tspan xml:space="preserve" text-anchor="middle" alignment-baseline="central">Start</tspan></text></g></g><g class="node-container" transform="translate(649,103.5)"><g class="sc-eulNck gEcknq node state Pass" data-testid="graph-Get workflow inputs" data-state-id="Get workflow inputs" data-state-type="Pass"><g class="new-look-state-node "><rect x="-120" y="-24.5" width="240" height="49" rx="3" ry="3"/><g class="handle" transform="translate(-120,-24.5)"><path d="M5,16 L5,34 M8,16 L8,34"/></g><g class="icon" transform="translate(-104,-24)"><rect fill="var(--color-background-container-header-etndi4, #fafafa)" x="0.0361026108" y="0.0181291967" width="48" height="48"/><line x1="47.5" y1="0.49122807" x2="47.5" y2="47.5" stroke="var(--color-board-placeholder-active-qurjro, #d5dbdb)" stroke-linecap="square"/><line x1="0.5" y1="0.49122807" x2="0.5" y2="47.5" stroke="var(--color-board-placeholder-active-qurjro, #d5dbdb)" stroke-linecap="square"/><use href="#icon-flow-pass"/></g><g class="text-lines" transform="translate(-48,-24.5)"><text transform="translate(0,17)" class="line1"><tspan xml:space="preserve" text-anchor="start">Pass state</tspan></text><text transform="translate(0,35.5)" class="line2 label"><tspan xml:space="preserve" text-anchor="start">Get workflow inputs</tspan></text></g></g></g></g><g class="node-container" transform="translate(649,187.5)"><g class="sc-eulNck gEcknq node state Task" data-testid="graph-Get Engine Parameters" data-state-id="Get Engine Parameters" data-state-type="Task"><g class="new-look-state-node "><rect x="-132.5" y="-24.5" width="265" height="49" rx="3" ry="3"/><g class="handle" transform="translate(-132.5,-24.5)"><path d="M5,16 L5,34 M8,16 L8,34"/></g><g class="icon" transform="translate(-116.5,-24)"><rect fill="var(--color-background-container-header-etndi4, #fafafa)" x="0.0361026108" y="0.0181291967" width="48" height="48"/><line x1="47.5" y1="0.49122807" x2="47.5" y2="47.5" stroke="var(--color-board-placeholder-active-qurjro, #d5dbdb)" stroke-linecap="square"/><line x1="0.5" y1="0.49122807" x2="0.5" y2="47.5" stroke="var(--color-board-placeholder-active-qurjro, #d5dbdb)" stroke-linecap="square"/><use href="#icon-service-systems-manager" aria-hidden="true"><title>Systems Manager</title></use></g><g class="text-lines" transform="translate(-60.5,-24.5)"><text transform="translate(0,17)" class="line1"><tspan xml:space="preserve" text-anchor="start">Systems Manager: GetParameters</tspan></text><text transform="translate(0,35.5)" class="line2 label"><tspan xml:space="preserve" text-anchor="start">Get Engine Parameters</tspan></text></g></g></g></g><g class="node-container" transform="translate(649,404.25)"><g class="sc-eulNck gEcknq node state container Parallel" data-testid="graph-Get tags" data-state-id="Get tags" data-state-type="Parallel"><g class="new-look-state-node "><g class="bounding-box" transform="translate(0,5)"><rect class="sc-dGCmGc blVNQB shape" rx="7" ry="7" x="-649" y="-157.25" width="1298" height="309.5"/><g class="content" transform="translate(-649,-157.25)"><g class="branch" transform="translate(20,89)"><g class="branchInsertArea" data-insertion-index="0" data-parent-state-id="Get tags" id="Get tags:0" x="-20" y="0" width="20" height="200.5"><rect x="-20" y="0" width="20" height="200.5" stroke="none" fill="none"/><path d="M-10,0 l0,200.5" stroke="none" fill="none"/></g><g transform=""><g class="nodes"><g class="node-container" transform="translate(168,24.5)"><g class="sc-eulNck gEcknq node state Task" data-testid="graph-Get fastq list rgids from normal libraries" data-state-id="Get fastq list rgids from normal libraries" data-state-type="Task"><g class="new-look-state-node "><rect x="-168" y="-24.5" width="336" height="49" rx="3" ry="3"/><g class="handle" transform="translate(-168,-24.5)"><path d="M5,16 L5,34 M8,16 L8,34"/></g><g class="icon" transform="translate(-152,-24)"><rect fill="var(--color-background-container-header-etndi4, #fafafa)" x="0.0361026108" y="0.0181291967" width="48" height="48"/><line x1="47.5" y1="0.49122807" x2="47.5" y2="47.5" stroke="var(--color-board-placeholder-active-qurjro, #d5dbdb)" stroke-linecap="square"/><line x1="0.5" y1="0.49122807" x2="0.5" y2="47.5" stroke="var(--color-board-placeholder-active-qurjro, #d5dbdb)" stroke-linecap="square"/><use href="#icon-service-lam" aria-hidden="true"><title>Lambda</title></use></g><g class="text-lines" transform="translate(-96,-24.5)"><text transform="translate(0,17)" class="line1"><tspan xml:space="preserve" text-anchor="start">Lambda: Invoke</tspan></text><text transform="translate(0,35.5)" class="line2 label"><tspan xml:space="preserve" text-anchor="start">Get fastq list rgids from normal libraries</tspan></text></g></g></g></g><g class="node-container" transform="translate(168,92)"><g><circle class="sc-bJBgwP dUiIqL shape" r="8"/></g></g></g><g class="edges"><g class="sc-dExYaf gfdgba edge"><path id="state-Get fastq list rgids from normal libraries:end:normal" d="M168,49L168,51.916666666666664C168,54.833333333333336,168,60.666666666666664,168,66.5C168,72.33333333333333,168,78.16666666666667,168,81.08333333333333L168,84" marker-end="url(#arrowhead)" fill="none"/></g></g></g><g class="branchInsertArea" data-insertion-index="1" data-parent-state-id="Get tags" id="Get tags:1" x="336" y="0" width="20" height="200.5"><rect x="336" y="0" width="20" height="200.5" stroke="none" fill="none"/><path d="M346,0 l0,200.5" stroke="none" fill="none"/></g></g><g class="branch" transform="translate(376,89)"><g transform=""><g class="nodes"><g class="node-container" transform="translate(327.5,24.5)"><g class="sc-eulNck gEcknq node state Choice" data-testid="graph-Has tumor library tag (tags)" data-state-id="Has tumor library tag (tags)" data-state-type="Choice"><g class="new-look-state-node "><rect x="-128.5" y="-24.5" width="257" height="49" rx="3" ry="3"/><g class="handle" transform="translate(-128.5,-24.5)"><path d="M5,16 L5,34 M8,16 L8,34"/></g><g class="icon" transform="translate(-112.5,-24)"><rect fill="var(--color-background-container-header-etndi4, #fafafa)" x="0.0361026108" y="0.0181291967" width="48" height="48"/><line x1="47.5" y1="0.49122807" x2="47.5" y2="47.5" stroke="var(--color-board-placeholder-active-qurjro, #d5dbdb)" stroke-linecap="square"/><line x1="0.5" y1="0.49122807" x2="0.5" y2="47.5" stroke="var(--color-board-placeholder-active-qurjro, #d5dbdb)" stroke-linecap="square"/><use href="#icon-flow-choice"/></g><g class="text-lines" transform="translate(-56.5,-24.5)"><text transform="translate(0,17)" class="line1"><tspan xml:space="preserve" text-anchor="start">Choice state</tspan></text><text transform="translate(0,35.5)" class="line2 label"><tspan xml:space="preserve" text-anchor="start">Has tumor library tag (tags)</tspan></text></g></g></g></g><g class="node-container" transform="translate(165,125)"><g class="sc-eulNck gEcknq node state Task" data-testid="graph-Get fastq list rgids from tumor libraries" data-state-id="Get fastq list rgids from tumor libraries" data-state-type="Task"><g class="new-look-state-node "><rect x="-165" y="-24.5" width="330" height="49" rx="3" ry="3"/><g class="handle" transform="translate(-165,-24.5)"><path d="M5,16 L5,34 M8,16 L8,34"/></g><g class="icon" transform="translate(-149,-24)"><rect fill="var(--color-background-container-header-etndi4, #fafafa)" x="0.0361026108" y="0.0181291967" width="48" height="48"/><line x1="47.5" y1="0.49122807" x2="47.5" y2="47.5" stroke="var(--color-board-placeholder-active-qurjro, #d5dbdb)" stroke-linecap="square"/><line x1="0.5" y1="0.49122807" x2="0.5" y2="47.5" stroke="var(--color-board-placeholder-active-qurjro, #d5dbdb)" stroke-linecap="square"/><use href="#icon-service-lam" aria-hidden="true"><title>Lambda</title></use></g><g class="text-lines" transform="translate(-93,-24.5)"><text transform="translate(0,17)" class="line1"><tspan xml:space="preserve" text-anchor="start">Lambda: Invoke</tspan></text><text transform="translate(0,35.5)" class="line2 label"><tspan xml:space="preserve" text-anchor="start">Get fastq list rgids from tumor libraries</tspan></text></g></g></g></g><g class="node-container" transform="translate(490,125)"><g class="sc-eulNck gEcknq node state Pass" data-testid="graph-Pass" data-state-id="Pass" data-state-type="Pass"><g class="new-look-state-node "><rect x="-120" y="-24.5" width="240" height="49" rx="3" ry="3"/><g class="handle" transform="translate(-120,-24.5)"><path d="M5,16 L5,34 M8,16 L8,34"/></g><g class="icon" transform="translate(-104,-24)"><rect fill="var(--color-background-container-header-etndi4, #fafafa)" x="0.0361026108" y="0.0181291967" width="48" height="48"/><line x1="47.5" y1="0.49122807" x2="47.5" y2="47.5" stroke="var(--color-board-placeholder-active-qurjro, #d5dbdb)" stroke-linecap="square"/><line x1="0.5" y1="0.49122807" x2="0.5" y2="47.5" stroke="var(--color-board-placeholder-active-qurjro, #d5dbdb)" stroke-linecap="square"/><use href="#icon-flow-pass"/></g><g class="text-lines" transform="translate(-48,-24.5)"><text transform="translate(0,17)" class="line1"><tspan xml:space="preserve" text-anchor="start">Pass state</tspan></text><text transform="translate(0,35.5)" class="line2 label"><tspan xml:space="preserve" text-anchor="start">Pass</tspan></text></g></g></g></g><g class="node-container" transform="translate(327.5,192.5)"><g><circle class="sc-bJBgwP dUiIqL shape" r="8"/></g></g></g><g class="edges"><g class="sc-dExYaf gfdgba edge"><path id="state-Has tumor library tag (tags):state-Get fastq list rgids from tumor libraries:choiceRule:0" d="M248.27114427860698,49L234.39262023217248,53.291666666666664C220.514096185738,57.583333333333336,192.75704809286898,66.16666666666667,178.87852404643448,74.75C165,83.33333333333333,165,91.91666666666667,165,96.20833333333333L165,100.5" marker-end="url(#arrowhead)" fill="none"/><g data-testid="graph-Has tumor library tag (tags)-0" class="edge-label" transform="translate(178.87852404643448,74.75)"><rect x="-22" y="-8.25" width="44" height="16.5" class="sc-iapWAC hfZBfh"/><text class="sc-kqGoIF hsHYWk label"><tspan xml:space="preserve" text-anchor="middle" alignment-baseline="central">Rule #1</tspan><title>Rule #1</title></text></g></g><g class="sc-dExYaf gfdgba edge"><path id="state-Has tumor library tag (tags):state-Pass:choiceDefault" d="M406.728855721393,49L420.6073797678275,53.291666666666664C434.48590381426203,57.583333333333336,462.24295190713104,66.16666666666667,476.1214759535655,74.75C490,83.33333333333333,490,91.91666666666667,490,96.20833333333333L490,100.5" marker-end="url(#arrowhead)" fill="none"/><g data-testid="graph-Has tumor library tag (tags)-Default" class="edge-label" transform="translate(476.1214759535655,74.75)"><rect x="-22" y="-8.25" width="44" height="16.5" class="sc-iapWAC hfZBfh"/><text class="sc-kqGoIF hsHYWk label"><tspan xml:space="preserve" text-anchor="middle" alignment-baseline="central">Default</tspan><title>Default</title></text></g></g><g class="sc-dExYaf gfdgba edge"><path id="state-Get fastq list rgids from tumor libraries:end:normal" d="M165,149.5L165,152.41666666666666C165,155.33333333333334,165,161.16666666666666,190.76611946693382,168.12663208045217C216.53223893386766,175.08659749423768,268.0644778677353,183.1731949884754,293.8305973346691,187.2164937355942L319.59671680160295,191.25979248271307" marker-end="url(#arrowhead)" fill="none"/></g><g class="sc-dExYaf gfdgba edge"><path id="state-Pass:end:normal" d="M490,149.5L490,152.41666666666666C490,155.33333333333334,490,161.16666666666666,464.23388053306616,168.12663208045217C438.46776106613237,175.08659749423768,386.9355221322647,183.1731949884754,361.16940266533084,187.2164937355942L335.40328319839705,191.25979248271307" marker-end="url(#arrowhead)" fill="none"/></g></g></g><g class="branchInsertArea" data-insertion-index="2" data-parent-state-id="Get tags" id="Get tags:2" x="610" y="0" width="20" height="200.5"><rect x="610" y="0" width="20" height="200.5" stroke="none" fill="none"/><path d="M620,0 l0,200.5" stroke="none" fill="none"/></g></g><g class="branch" transform="translate(1006,89)"><g transform=""><g class="nodes"><g class="node-container" transform="translate(136,24.5)"><g class="sc-eulNck gEcknq node state Task" data-testid="graph-Get subject and library id tags" data-state-id="Get subject and library id tags" data-state-type="Task"><g class="new-look-state-node "><rect x="-136" y="-24.5" width="272" height="49" rx="3" ry="3"/><g class="handle" transform="translate(-136,-24.5)"><path d="M5,16 L5,34 M8,16 L8,34"/></g><g class="icon" transform="translate(-120,-24)"><rect fill="var(--color-background-container-header-etndi4, #fafafa)" x="0.0361026108" y="0.0181291967" width="48" height="48"/><line x1="47.5" y1="0.49122807" x2="47.5" y2="47.5" stroke="var(--color-board-placeholder-active-qurjro, #d5dbdb)" stroke-linecap="square"/><line x1="0.5" y1="0.49122807" x2="0.5" y2="47.5" stroke="var(--color-board-placeholder-active-qurjro, #d5dbdb)" stroke-linecap="square"/><use href="#icon-service-lam" aria-hidden="true"><title>Lambda</title></use></g><g class="text-lines" transform="translate(-64,-24.5)"><text transform="translate(0,17)" class="line1"><tspan xml:space="preserve" text-anchor="start">Lambda: Invoke</tspan></text><text transform="translate(0,35.5)" class="line2 label"><tspan xml:space="preserve" text-anchor="start">Get subject and library id tags</tspan></text></g></g></g></g><g class="node-container" transform="translate(136,92)"><g><circle class="sc-bJBgwP dUiIqL shape" r="8"/></g></g></g><g class="edges"><g class="sc-dExYaf gfdgba edge"><path id="state-Get subject and library id tags:end:normal" d="M136,49L136,51.916666666666664C136,54.833333333333336,136,60.666666666666664,136,66.5C136,72.33333333333333,136,78.16666666666667,136,81.08333333333333L136,84" marker-end="url(#arrowhead)" fill="none"/></g></g></g><g class="branchInsertArea" data-insertion-index="3" data-parent-state-id="Get tags" id="Get tags:3" x="272" y="0" width="20" height="200.5"><rect x="272" y="0" width="20" height="200.5" stroke="none" fill="none"/><path d="M282,0 l0,200.5" stroke="none" fill="none"/></g></g><g class="sc-dExYaf gfdgba"><path id="Get tags-Get fastq list rgids from normal libraries" class="path starting-connection" d="M649,44L649,47.75C649,51.5,649,59,572.1666666666666,62.75C495.3333333333333,66.5,341.6666666666667,66.5,264.8333333333333,70.25C188,74,188,81.5,188,85.25L188,89" fill="none"/></g><g class="sc-dExYaf gfdgba"><path id="Get tags-Has tumor library tag (tags)" class="path starting-connection" d="M649,44L649,47.75C649,51.5,649,59,658.0833333333334,62.75C667.1666666666666,66.5,685.3333333333334,66.5,694.4166666666666,70.25C703.5,74,703.5,81.5,703.5,85.25L703.5,89" fill="none"/></g><g class="sc-dExYaf gfdgba"><path id="Get tags-Get subject and library id tags" class="path starting-connection" d="M649,44L649,47.75C649,51.5,649,59,731.1666666666666,62.75C813.3333333333334,66.5,977.6666666666666,66.5,1059.8333333333333,70.25C1142,74,1142,81.5,1142,85.25L1142,89" fill="none"/></g></g></g><g class="new-look-state-node "><rect x="-120" y="-157.25" width="240" height="49" rx="3" ry="3"/><g class="handle" transform="translate(-120,-157.25)"><path d="M5,16 L5,34 M8,16 L8,34"/></g><g class="icon" transform="translate(-104,-156.75)"><rect fill="var(--color-background-container-header-etndi4, #fafafa)" x="0.0361026108" y="0.0181291967" width="48" height="48"/><line x1="47.5" y1="0.49122807" x2="47.5" y2="47.5" stroke="var(--color-board-placeholder-active-qurjro, #d5dbdb)" stroke-linecap="square"/><line x1="0.5" y1="0.49122807" x2="0.5" y2="47.5" stroke="var(--color-board-placeholder-active-qurjro, #d5dbdb)" stroke-linecap="square"/><use href="#icon-flow-parallel"/></g><g class="text-lines" transform="translate(-48,-157.25)"><text transform="translate(0,17)" class="line1"><tspan xml:space="preserve" text-anchor="start">Parallel state</tspan></text><text transform="translate(0,35.5)" class="line2 label"><tspan xml:space="preserve" text-anchor="start">Get tags</tspan></text></g></g></g></g></g><g class="node-container" transform="translate(649,753.75)"><g class="sc-eulNck gEcknq node state container Parallel" data-testid="graph-Get Inputs" data-state-id="Get Inputs" data-state-type="Parallel"><g class="new-look-state-node "><g class="bounding-box" transform="translate(0,5)"><rect class="sc-dGCmGc blVNQB shape" rx="7" ry="7" x="-552.5" y="-157.25" width="1105" height="309.5"/><g class="content" transform="translate(-552.5,-157.25)"><g class="branch" transform="translate(20,89)"><g class="branchInsertArea" data-insertion-index="0" data-parent-state-id="Get Inputs" id="Get Inputs:0" x="-20" y="0" width="20" height="200.5"><rect x="-20" y="0" width="20" height="200.5" stroke="none" fill="none"/><path d="M-10,0 l0,200.5" stroke="none" fill="none"/></g><g transform=""><g class="nodes"><g class="node-container" transform="translate(120,24.5)"><g class="sc-eulNck gEcknq node state Task" data-testid="graph-Get fastq list rows" data-state-id="Get fastq list rows" data-state-type="Task"><g class="new-look-state-node "><rect x="-120" y="-24.5" width="240" height="49" rx="3" ry="3"/><g class="handle" transform="translate(-120,-24.5)"><path d="M5,16 L5,34 M8,16 L8,34"/></g><g class="icon" transform="translate(-104,-24)"><rect fill="var(--color-background-container-header-etndi4, #fafafa)" x="0.0361026108" y="0.0181291967" width="48" height="48"/><line x1="47.5" y1="0.49122807" x2="47.5" y2="47.5" stroke="var(--color-board-placeholder-active-qurjro, #d5dbdb)" stroke-linecap="square"/><line x1="0.5" y1="0.49122807" x2="0.5" y2="47.5" stroke="var(--color-board-placeholder-active-qurjro, #d5dbdb)" stroke-linecap="square"/><use href="#icon-service-lam" aria-hidden="true"><title>Lambda</title></use></g><g class="text-lines" transform="translate(-48,-24.5)"><text transform="translate(0,17)" class="line1"><tspan xml:space="preserve" text-anchor="start">Lambda: Invoke</tspan></text><text transform="translate(0,35.5)" class="line2 label"><tspan xml:space="preserve" text-anchor="start">Get fastq list rows</tspan></text></g></g></g></g><g class="node-container" transform="translate(120,92)"><g><circle class="sc-bJBgwP dUiIqL shape" r="8"/></g></g></g><g class="edges"><g class="sc-dExYaf gfdgba edge"><path id="state-Get fastq list rows:end:normal" d="M120,49L120,51.916666666666664C120,54.833333333333336,120,60.666666666666664,120,66.5C120,72.33333333333333,120,78.16666666666667,120,81.08333333333333L120,84" marker-end="url(#arrowhead)" fill="none"/></g></g></g><g class="branchInsertArea" data-insertion-index="1" data-parent-state-id="Get Inputs" id="Get Inputs:1" x="240" y="0" width="20" height="200.5"><rect x="240" y="0" width="20" height="200.5" stroke="none" fill="none"/><path d="M250,0 l0,200.5" stroke="none" fill="none"/></g></g><g class="branch" transform="translate(280,89)"><g transform=""><g class="nodes"><g class="node-container" transform="translate(260,24.5)"><g class="sc-eulNck gEcknq node state Choice" data-testid="graph-Has tumor rgid list" data-state-id="Has tumor rgid list" data-state-type="Choice"><g class="new-look-state-node "><rect x="-120" y="-24.5" width="240" height="49" rx="3" ry="3"/><g class="handle" transform="translate(-120,-24.5)"><path d="M5,16 L5,34 M8,16 L8,34"/></g><g class="icon" transform="translate(-104,-24)"><rect fill="var(--color-background-container-header-etndi4, #fafafa)" x="0.0361026108" y="0.0181291967" width="48" height="48"/><line x1="47.5" y1="0.49122807" x2="47.5" y2="47.5" stroke="var(--color-board-placeholder-active-qurjro, #d5dbdb)" stroke-linecap="square"/><line x1="0.5" y1="0.49122807" x2="0.5" y2="47.5" stroke="var(--color-board-placeholder-active-qurjro, #d5dbdb)" stroke-linecap="square"/><use href="#icon-flow-choice"/></g><g class="text-lines" transform="translate(-48,-24.5)"><text transform="translate(0,17)" class="line1"><tspan xml:space="preserve" text-anchor="start">Choice state</tspan></text><text transform="translate(0,35.5)" class="line2 label"><tspan xml:space="preserve" text-anchor="start">Has tumor rgid list</tspan></text></g></g></g></g><g class="node-container" transform="translate(120,125)"><g class="sc-eulNck gEcknq node state Task" data-testid="graph-Get tumor fastq list rows" data-state-id="Get tumor fastq list rows" data-state-type="Task"><g class="new-look-state-node "><rect x="-120" y="-24.5" width="240" height="49" rx="3" ry="3"/><g class="handle" transform="translate(-120,-24.5)"><path d="M5,16 L5,34 M8,16 L8,34"/></g><g class="icon" transform="translate(-104,-24)"><rect fill="var(--color-background-container-header-etndi4, #fafafa)" x="0.0361026108" y="0.0181291967" width="48" height="48"/><line x1="47.5" y1="0.49122807" x2="47.5" y2="47.5" stroke="var(--color-board-placeholder-active-qurjro, #d5dbdb)" stroke-linecap="square"/><line x1="0.5" y1="0.49122807" x2="0.5" y2="47.5" stroke="var(--color-board-placeholder-active-qurjro, #d5dbdb)" stroke-linecap="square"/><use href="#icon-service-lam" aria-hidden="true"><title>Lambda</title></use></g><g class="text-lines" transform="translate(-48,-24.5)"><text transform="translate(0,17)" class="line1"><tspan xml:space="preserve" text-anchor="start">Lambda: Invoke</tspan></text><text transform="translate(0,35.5)" class="line2 label"><tspan xml:space="preserve" text-anchor="start">Get tumor fastq list rows</tspan></text></g></g></g></g><g class="node-container" transform="translate(400,125)"><g class="sc-eulNck gEcknq node state Pass" data-testid="graph-Pass (1)" data-state-id="Pass (1)" data-state-type="Pass"><g class="new-look-state-node "><rect x="-120" y="-24.5" width="240" height="49" rx="3" ry="3"/><g class="handle" transform="translate(-120,-24.5)"><path d="M5,16 L5,34 M8,16 L8,34"/></g><g class="icon" transform="translate(-104,-24)"><rect fill="var(--color-background-container-header-etndi4, #fafafa)" x="0.0361026108" y="0.0181291967" width="48" height="48"/><line x1="47.5" y1="0.49122807" x2="47.5" y2="47.5" stroke="var(--color-board-placeholder-active-qurjro, #d5dbdb)" stroke-linecap="square"/><line x1="0.5" y1="0.49122807" x2="0.5" y2="47.5" stroke="var(--color-board-placeholder-active-qurjro, #d5dbdb)" stroke-linecap="square"/><use href="#icon-flow-pass"/></g><g class="text-lines" transform="translate(-48,-24.5)"><text transform="translate(0,17)" class="line1"><tspan xml:space="preserve" text-anchor="start">Pass state</tspan></text><text transform="translate(0,35.5)" class="line2 label"><tspan xml:space="preserve" text-anchor="start">Pass (1)</tspan></text></g></g></g></g><g class="node-container" transform="translate(260,192.5)"><g><circle class="sc-bJBgwP dUiIqL shape" r="8"/></g></g></g><g class="edges"><g class="sc-dExYaf gfdgba edge"><path id="state-Has tumor rgid list:state-Get tumor fastq list rows:choiceRule:0" d="M191.74129353233832,49L179.7844112769486,53.291666666666664C167.8275290215589,57.583333333333336,143.91376451077943,66.16666666666667,131.95688225538973,74.75C120,83.33333333333333,120,91.91666666666667,120,96.20833333333333L120,100.5" marker-end="url(#arrowhead)" fill="none"/><g data-testid="graph-Has tumor rgid list-0" class="edge-label" transform="translate(131.95688225538973,74.75)"><rect x="-22" y="-8.25" width="44" height="16.5" class="sc-iapWAC hfZBfh"/><text class="sc-kqGoIF hsHYWk label"><tspan xml:space="preserve" text-anchor="middle" alignment-baseline="central">Rule #1</tspan><title>Rule #1</title></text></g></g><g class="sc-dExYaf gfdgba edge"><path id="state-Has tumor rgid list:state-Pass (1):choiceDefault" d="M328.2587064676617,49L340.21558872305144,53.291666666666664C352.17247097844114,57.583333333333336,376.0862354892206,66.16666666666667,388.0431177446103,74.75C400,83.33333333333333,400,91.91666666666667,400,96.20833333333333L400,100.5" marker-end="url(#arrowhead)" fill="none"/><g data-testid="graph-Has tumor rgid list-Default" class="edge-label" transform="translate(388.0431177446103,74.75)"><rect x="-22" y="-8.25" width="44" height="16.5" class="sc-iapWAC hfZBfh"/><text class="sc-kqGoIF hsHYWk label"><tspan xml:space="preserve" text-anchor="middle" alignment-baseline="central">Default</tspan><title>Default</title></text></g></g><g class="sc-dExYaf gfdgba edge"><path id="state-Get tumor fastq list rows:end:normal" d="M120,149.5L120,152.41666666666666C120,155.33333333333334,120,161.16666666666666,142.0215818085442,168.09440716274673C164.04316361708842,175.0221476588268,208.08632723417682,183.04429531765365,230.10790904272105,187.05536914706704L252.12949085126522,191.06644297648046" marker-end="url(#arrowhead)" fill="none"/></g><g class="sc-dExYaf gfdgba edge"><path id="state-Pass (1):end:normal" d="M400,149.5L400,152.41666666666666C400,155.33333333333334,400,161.16666666666666,377.9784181914558,168.09440716274673C355.9568363829116,175.0221476588268,311.91367276582315,183.04429531765365,289.892090957279,187.05536914706704L267.87050914873475,191.06644297648046" marker-end="url(#arrowhead)" fill="none"/></g></g></g><g class="branchInsertArea" data-insertion-index="2" data-parent-state-id="Get Inputs" id="Get Inputs:2" x="520" y="0" width="20" height="200.5"><rect x="520" y="0" width="20" height="200.5" stroke="none" fill="none"/><path d="M530,0 l0,200.5" stroke="none" fill="none"/></g></g><g class="branch" transform="translate(820,89)"><g transform=""><g class="nodes"><g class="node-container" transform="translate(132.5,24.5)"><g class="sc-eulNck gEcknq node state Task" data-testid="graph-Get reference tarballs" data-state-id="Get reference tarballs" data-state-type="Task"><g class="new-look-state-node "><rect x="-132.5" y="-24.5" width="265" height="49" rx="3" ry="3"/><g class="handle" transform="translate(-132.5,-24.5)"><path d="M5,16 L5,34 M8,16 L8,34"/></g><g class="icon" transform="translate(-116.5,-24)"><rect fill="var(--color-background-container-header-etndi4, #fafafa)" x="0.0361026108" y="0.0181291967" width="48" height="48"/><line x1="47.5" y1="0.49122807" x2="47.5" y2="47.5" stroke="var(--color-board-placeholder-active-qurjro, #d5dbdb)" stroke-linecap="square"/><line x1="0.5" y1="0.49122807" x2="0.5" y2="47.5" stroke="var(--color-board-placeholder-active-qurjro, #d5dbdb)" stroke-linecap="square"/><use href="#icon-service-systems-manager" aria-hidden="true"><title>Systems Manager</title></use></g><g class="text-lines" transform="translate(-60.5,-24.5)"><text transform="translate(0,17)" class="line1"><tspan xml:space="preserve" text-anchor="start">Systems Manager: GetParameters</tspan></text><text transform="translate(0,35.5)" class="line2 label"><tspan xml:space="preserve" text-anchor="start">Get reference tarballs</tspan></text></g></g></g></g><g class="node-container" transform="translate(132.5,92)"><g><circle class="sc-bJBgwP dUiIqL shape" r="8"/></g></g></g><g class="edges"><g class="sc-dExYaf gfdgba edge"><path id="state-Get reference tarballs:end:normal" d="M132.5,49L132.5,51.916666666666664C132.5,54.833333333333336,132.5,60.666666666666664,132.5,66.5C132.5,72.33333333333333,132.5,78.16666666666667,132.5,81.08333333333333L132.5,84" marker-end="url(#arrowhead)" fill="none"/></g></g></g><g class="branchInsertArea" data-insertion-index="3" data-parent-state-id="Get Inputs" id="Get Inputs:3" x="265" y="0" width="20" height="200.5"><rect x="265" y="0" width="20" height="200.5" stroke="none" fill="none"/><path d="M275,0 l0,200.5" stroke="none" fill="none"/></g></g><g class="sc-dExYaf gfdgba"><path id="Get Inputs-Get fastq list rows" class="path starting-connection" d="M552.5,44L552.5,47.75C552.5,51.5,552.5,59,483.75,62.75C415,66.5,277.5,66.5,208.75,70.25C140,74,140,81.5,140,85.25L140,89" fill="none"/></g><g class="sc-dExYaf gfdgba"><path id="Get Inputs-Has tumor rgid list" class="path starting-connection" d="M552.5,44L552.5,47.75C552.5,51.5,552.5,59,550.4166666666666,62.75C548.3333333333334,66.5,544.1666666666666,66.5,542.0833333333334,70.25C540,74,540,81.5,540,85.25L540,89" fill="none"/></g><g class="sc-dExYaf gfdgba"><path id="Get Inputs-Get reference tarballs" class="path starting-connection" d="M552.5,44L552.5,47.75C552.5,51.5,552.5,59,619.1666666666666,62.75C685.8333333333334,66.5,819.1666666666666,66.5,885.8333333333334,70.25C952.5,74,952.5,81.5,952.5,85.25L952.5,89" fill="none"/></g></g></g><g class="new-look-state-node "><rect x="-120" y="-157.25" width="240" height="49" rx="3" ry="3"/><g class="handle" transform="translate(-120,-157.25)"><path d="M5,16 L5,34 M8,16 L8,34"/></g><g class="icon" transform="translate(-104,-156.75)"><rect fill="var(--color-background-container-header-etndi4, #fafafa)" x="0.0361026108" y="0.0181291967" width="48" height="48"/><line x1="47.5" y1="0.49122807" x2="47.5" y2="47.5" stroke="var(--color-board-placeholder-active-qurjro, #d5dbdb)" stroke-linecap="square"/><line x1="0.5" y1="0.49122807" x2="0.5" y2="47.5" stroke="var(--color-board-placeholder-active-qurjro, #d5dbdb)" stroke-linecap="square"/><use href="#icon-flow-parallel"/></g><g class="text-lines" transform="translate(-48,-157.25)"><text transform="translate(0,17)" class="line1"><tspan xml:space="preserve" text-anchor="start">Parallel state</tspan></text><text transform="translate(0,35.5)" class="line2 label"><tspan xml:space="preserve" text-anchor="start">Get Inputs</tspan></text></g></g></g></g></g><g class="node-container" transform="translate(649,970.5)"><g class="sc-eulNck gEcknq node state Task" data-testid="graph-Push READY Event" data-state-id="Push READY Event" data-state-type="Task"><g class="new-look-state-node "><rect x="-120" y="-24.5" width="240" height="49" rx="3" ry="3"/><g class="handle" transform="translate(-120,-24.5)"><path d="M5,16 L5,34 M8,16 L8,34"/></g><g class="icon" transform="translate(-104,-24)"><rect fill="var(--color-background-container-header-etndi4, #fafafa)" x="0.0361026108" y="0.0181291967" width="48" height="48"/><line x1="47.5" y1="0.49122807" x2="47.5" y2="47.5" stroke="var(--color-board-placeholder-active-qurjro, #d5dbdb)" stroke-linecap="square"/><line x1="0.5" y1="0.49122807" x2="0.5" y2="47.5" stroke="var(--color-board-placeholder-active-qurjro, #d5dbdb)" stroke-linecap="square"/><use href="#icon-service-events" aria-hidden="true"><title>Amazon EventBridge</title></use></g><g class="text-lines" transform="translate(-48,-24.5)"><text transform="translate(0,17)" class="line1"><tspan xml:space="preserve" text-anchor="start">EventBridge: PutEvents</tspan></text><text transform="translate(0,35.5)" class="line2 label"><tspan xml:space="preserve" text-anchor="start">Push READY Event</tspan></text></g></g></g></g><g class="node-container" transform="translate(649,1052)"><g><circle class="sc-leSDtu iQVBKq shape" r="22"/><text class="sc-fbKhjd kfGofs label"><tspan xml:space="preserve" text-anchor="middle" alignment-baseline="central">End</tspan></text></g></g></g><g class="edges"><g class="sc-dExYaf gfdgba edge"><path id="state-Get workflow inputs:state-Get Engine Parameters:normal" d="M649,128L649,130.91666666666666C649,133.83333333333334,649,139.66666666666666,649,145.5C649,151.33333333333334,649,157.16666666666666,649,160.08333333333334L649,163" marker-end="url(#arrowhead)" fill="none"/></g><g class="sc-dExYaf gfdgba edge"><path id="start:state-Get workflow inputs" d="M649,44L649,46.916666666666664C649,49.833333333333336,649,55.666666666666664,649,61.5C649,67.33333333333333,649,73.16666666666667,649,76.08333333333333L649,79" marker-end="url(#arrowhead)" fill="none"/></g><g class="sc-dExYaf gfdgba edge"><path id="state-Get Engine Parameters:state-Get tags:normal" d="M649,212L649,214.91666666666666C649,217.83333333333334,649,223.66666666666666,649,229.5C649,235.33333333333334,649,241.16666666666666,649,244.08333333333334L649,247" marker-end="url(#arrowhead)" fill="none"/></g><g class="sc-dExYaf gfdgba edge"><path id="state-Get tags:state-Get Inputs:normal" d="M649,561.5L649,564.4166666666666C649,567.3333333333334,649,573.1666666666666,649,579C649,584.8333333333334,649,590.6666666666666,649,593.5833333333334L649,596.5" marker-end="url(#arrowhead)" fill="none"/></g><g class="sc-dExYaf gfdgba edge"><path id="state-Get Inputs:state-Push READY Event:normal" d="M649,911L649,913.9166666666666C649,916.8333333333334,649,922.6666666666666,649,928.5C649,934.3333333333334,649,940.1666666666666,649,943.0833333333334L649,946" marker-end="url(#arrowhead)" fill="none"/></g><g class="sc-dExYaf gfdgba edge"><path id="state-Push READY Event:end:normal" d="M649,995L649,997.9166666666666C649,1000.8333333333334,649,1006.6666666666666,649,1012.5C649,1018.3333333333334,649,1024.1666666666667,649,1027.0833333333333L649,1030" marker-end="url(#arrowhead)" fill="none"/></g></g><defs><marker id="arrowhead" markerWidth="8" markerHeight="6" refX="7" refY="3" orient="auto" class="sc-dhFUGM mKMzz"><polygon points="0 0, 8 3, 0 6"/></marker><marker id="highlighted-arrowhead" markerWidth="6" markerHeight="4" refX="5" refY="2" orient="auto" class="sc-dhFUGM mKMzz"><polygon points="0 0, 6 2, 0 4"/></marker><marker id="error-arrowhead" markerWidth="6" markerHeight="4" refX="5" refY="2" orient="auto" class="sc-dhFUGM mKMzz"><polygon points="0 0, 6 2, 0 4"/></marker><marker id="large-arrowhead" markerWidth="10" markerHeight="8" refX="9" refY="4" orient="auto" class="sc-dhFUGM mKMzz"><polygon points="0 0, 10 4, 0 8"/></marker><marker id="large-highlighted-arrowhead" markerWidth="5.5" markerHeight="4" refX="4.5" refY="2" orient="auto" class="sc-dhFUGM mKMzz"><polygon points="0 0, 5.5 2, 0 4"/></marker><marker id="large-error-arrowhead" markerWidth="10" markerHeight="8" refX="9" refY="4" orient="auto" class="sc-dhFUGM mKMzz"><polygon points="0 0, 10 4, 0 8"/></marker><linearGradient x1="0%" y1="100%" x2="100%" y2="0%" id="gradient-orange"><stop stop-color="#C8511B" offset="0%"/><stop stop-color="#FF9900" offset="100%"/></linearGradient><linearGradient x1="0%" y1="100%" x2="100%" y2="0%" id="gradient-turquoise"><stop stop-color="#055F4E" offset="0%"/><stop stop-color="#56C0A7" offset="100%"/></linearGradient><linearGradient x1="0%" y1="100%" x2="100%" y2="0%" id="gradient-blue"><stop stop-color="#2E27AD" offset="0%"/><stop stop-color="#527FFF" offset="100%"/></linearGradient><linearGradient x1="0%" y1="100%" x2="100%" y2="0%" id="gradient-pink"><stop stop-color="#B0084D" offset="0%"/><stop stop-color="#FF4F8B" offset="100%"/></linearGradient><linearGradient x1="0%" y1="100%" x2="100%" y2="0%" id="gradient-red"><stop stop-color="#BD0816" offset="0%"/><stop stop-color="#FF5252" offset="100%"/></linearGradient><linearGradient x1="0%" y1="100%" x2="100%" y2="0%" id="gradient-green"><stop stop-color="#1B660F" offset="0%"/><stop stop-color="#6CAE3E" offset="100%"/></linearGradient><linearGradient x1="0%" y1="100%" x2="100%" y2="0%" id="gradient-purple"><stop stop-color="#4D27A8" offset="0%"/><stop stop-color="#A166FF" offset="100%"/></linearGradient><linearGradient x1="0%" y1="100%" x2="100%" y2="0%" id="gradient-grey"><stop stop-color="#DCDCDC" offset="0%"/><stop stop-color="#F6F5F7" offset="100%"/></linearGradient><linearGradient x1="0%" y1="100%" x2="100%" y2="0%" id="gradient-light-pink"><stop stop-color="#DD344C" offset="0%"/><stop stop-color="#DD344C" offset="100%"/></linearGradient>,<linearGradient x1="0%" y1="100%" x2="100%" y2="0%" id="gradient-ag"><stop stop-color="#BC1356" offset="0%"/><stop stop-color="#F34482" offset="100%"/></linearGradient><linearGradient x1="0%" y1="100%" x2="100%" y2="0%" id="gradient-athena"><stop stop-color="#5930B5" offset="0%"/><stop stop-color="#945DF2" offset="100%"/></linearGradient><linearGradient x1="0%" y1="100%" x2="100%" y2="0%" id="gradient-emr"><stop stop-color="#5930B5" offset="0%"/><stop stop-color="#945DF2" offset="100%"/></linearGradient><linearGradient x1="0%" y1="100%" x2="100%" y2="0%" id="gradient-glue"><stop stop-color="#5930B5" offset="0%"/><stop stop-color="#945DF2" offset="100%"/></linearGradient><linearGradient x1="0%" y1="100%" x2="100%" y2="0%" id="gradient-sns"><stop stop-color="#BC1356" offset="0%"/><stop stop-color="#F34482" offset="100%"/></linearGradient><linearGradient x1="0%" y1="100%" x2="100%" y2="0%" id="gradient-states"><stop stop-color="#BC1356" offset="0%"/><stop stop-color="#F34482" offset="100%"/></linearGradient><linearGradient x1="0%" y1="100%" x2="100%" y2="0%" id="gradient-generic"><stop stop-color="#ccc" offset="0%"/><stop stop-color="#ddd" offset="100%"/></linearGradient><g stroke="none" stroke-width="1" fill="none" fill-rule="evenodd" id="icon-flow-pass"><g transform="translate(10.500000, 8.750000)" fill="#0073BB" fill-rule="nonzero"><path d="M13.8217363,31.2803301 L13.7368454,31.3532508 L13.7368454,31.3532508 L13.6534426,31.407053 L13.6534426,31.407053 L13.6052878,31.4313839 L13.6052878,31.4313839 L13.5081671,31.4681458 L13.5081671,31.4681458 L13.4513711,31.4828395 L13.4513711,31.4828395 L13.3846755,31.4942127 L13.3846755,31.4942127 L13.3412428,31.498357 L13.3412428,31.498357 L13.241495,31.498357 L13.241495,31.498357 L13.1802045,31.4917588 L13.1802045,31.4917588 L13.1314644,31.4828361 L13.1314644,31.4828361 L13.0652921,31.4652652 L12.9776235,31.4314294 L12.9776235,31.4314294 L12.9293782,31.4070608 L12.9293782,31.4070608 L12.8294824,31.3409596 L12.7610762,31.2803301 L12.7610762,31.2803301 L8.26107616,26.7803301 C7.96818295,26.4874369 7.96818295,26.0125631 8.26107616,25.7196699 C8.52734273,25.4534034 8.94400641,25.4291973 9.2376179,25.6470518 L9.32173634,25.7196699 L12.5814063,28.979 L12.581,19.7495522 L3.5,19.75 C1.6314366,19.75 0.104873551,18.2857224 0.00517886273,16.4420352 L0,16.25 L0,12.25 C0,10.3814366 1.4642776,8.85487355 3.3079648,8.75517886 L3.5,8.75 L11.686,8.74955216 L11.686,10.2495522 L3.5,10.25 C2.4456382,10.25 1.58183488,11.0658778 1.50548574,12.1007377 L1.5,12.25 L1.5,16.25 C1.5,17.3043618 2.31587779,18.1681651 3.35073766,18.2445143 L3.5,18.25 L22.5,18.25 C23.5543618,18.25 24.4181651,17.4341222 24.4945143,16.3992623 L24.5,16.25 L24.5,12.25 C24.5,11.1956382 23.6841222,10.3318349 22.6492623,10.2554857 L22.5,10.25 L15.686,10.2495522 L15.686,8.74955216 L22.5,8.75 C24.3685634,8.75 25.8951264,10.2142776 25.9948211,12.0579648 L26,12.25 L26,16.25 C26,18.1185634 24.5357224,19.6451264 22.6920352,19.7448211 L22.5,19.75 L14.081,19.7495522 L14.0814063,28.899 L17.2610762,25.7196699 L17.3451946,25.6470518 C17.6388061,25.4291973 18.0554698,25.4534034 18.3217363,25.7196699 C18.5880029,25.9859365 18.6122089,26.4026002 18.3943545,26.6962117 L18.3217363,26.7803301 L13.8217363,31.2803301 Z" fill="false"/><polygon points="14.0818291 0 14.0818291 14.5 12.5818291 14.5 12.5818291 0" fill="false"/></g></g><g stroke="none" stroke-width="1" fill="none" fill-rule="evenodd" id="icon-flow-choice"><g transform="translate(9.252020, 8.729185)" fill="#0073BB" fill-rule="nonzero"><path d="M13.7176503,0.219669914 C13.9839168,-0.0465966484 14.4005805,-0.0708026996 14.694192,0.147051761 L14.7783104,0.219669914 L26.7991257,12.2404852 C27.0653923,12.5067518 27.0895983,12.9234154 26.8717439,13.2170269 L26.7991257,13.3011454 L19.848,20.251 L27.063,27.58 L27.0635443,24.4725437 C27.0635443,24.0583302 27.3993308,23.7225437 27.8135443,23.7225437 C28.1901021,23.7225437 28.5018441,24.0000532 28.5554124,24.3617142 L28.5635443,24.4725437 L28.5635443,29.4222912 C28.5635443,29.4735748 28.5583971,29.5236562 28.5485912,29.5720469 L28.5290567,29.6477745 L28.4912259,29.7440224 L28.4674556,29.7898473 L28.4399848,29.8348433 L28.3922808,29.8993609 L28.3266417,29.9693147 L28.2903734,30.0012261 L28.2103598,30.0588356 L28.1372883,30.0990133 L28.0408973,30.1372113 L27.9243738,30.1641593 C27.8841362,30.1698129 27.8491297,30.1722912 27.8135443,30.1722912 L22.8637969,30.1722912 C22.4495833,30.1722912 22.1137969,29.8365048 22.1137969,29.4222912 C22.1137969,29.0457334 22.3913063,28.7339914 22.7529674,28.6804231 L22.8637969,28.6722912 L26.032,28.672 L18.787,21.312 L14.7783104,25.3219606 C14.5120439,25.5882272 14.0953802,25.6124333 13.8017687,25.3945788 L13.7176503,25.3219606 L9.63,21.234 L2.386,28.671 L5.69974747,28.6722912 L5.81057697,28.6804231 C6.17223802,28.7339914 6.44974747,29.0457334 6.44974747,29.4222912 C6.44974747,29.801987 6.16759359,30.1157822 5.80151803,30.1654446 L5.69974747,30.1722912 L0.75,30.1722912 L0.645175107,30.1650238 L0.571316134,30.150876 L0.491748953,30.1266437 L0.399838514,30.0857012 L0.323957521,30.0396165 L0.243169757,29.975129 L0.170912131,29.8989347 L0.109961584,29.8134582 L0.0656949991,29.7297074 L0.0297396696,29.6320944 L0.0076057584,29.5294944 L6.67910172e-13,29.4222912 L6.67910172e-13,24.4725437 L0.00813192572,24.3617142 C0.0617002376,24.0000532 0.373442216,23.7225437 0.75,23.7225437 C1.12969577,23.7225437 1.44349096,24.0046976 1.49315338,24.3707732 L1.5,24.4725437 L1.499,27.433 L8.569,20.174 L1.69683498,13.3011454 C1.43056842,13.0348788 1.40636237,12.6182151 1.62421683,12.3246036 L1.69683498,12.2404852 L13.7176503,0.219669914 Z M14.3527697,23.728356 L25.2081355,12.7708153 L14.2479803,1.81066017 L3.28782524,12.7708153 L9.616,19.099 L14.3527697,23.728356 Z" fill="false"/><path d="M15.2319803,14.0468153 L15.2319803,13.2668153 C16.0033137,12.8508153 16.5579803,12.4218153 16.8959803,11.9798153 C17.2339803,11.5378153 17.4029803,11.0178153 17.4029803,10.4198153 C17.4029803,9.65714861 17.151647,9.06131528 16.6489803,8.63231528 C16.1463137,8.20331528 15.448647,7.98881528 14.5559803,7.98881528 C13.6979803,7.98881528 12.874647,8.19248195 12.0859803,8.59981528 L12.0859803,8.59981528 L12.0859803,10.3288153 C12.8313137,9.98214861 13.4943137,9.80881528 14.0749803,9.80881528 C14.395647,9.80881528 14.6404803,9.87814861 14.8094803,10.0168153 C14.9784803,10.1554819 15.0629803,10.3591486 15.0629803,10.6278153 C15.0629803,10.9138153 14.9763137,11.1651486 14.8029803,11.3818153 C14.629647,11.5984819 14.343647,11.8151486 13.9449803,12.0318153 L13.9449803,12.0318153 L13.1909803,12.4348153 L13.3339803,14.0468153 L15.2319803,14.0468153 Z M14.3089803,17.4398153 C14.7249803,17.4398153 15.0608137,17.3141486 15.3164803,17.0628153 C15.572147,16.8114819 15.6999803,16.4821486 15.6999803,16.0748153 C15.6999803,15.6674819 15.572147,15.3381486 15.3164803,15.0868153 C15.0608137,14.8354819 14.7249803,14.7098153 14.3089803,14.7098153 C13.8929803,14.7098153 13.557147,14.8354819 13.3014803,15.0868153 C13.0458137,15.3381486 12.9179803,15.6674819 12.9179803,16.0748153 C12.9179803,16.4821486 13.0458137,16.8114819 13.3014803,17.0628153 C13.557147,17.3141486 13.8929803,17.4398153 14.3089803,17.4398153 Z" fill="false"/></g></g><g stroke="none" stroke-width="1" fill="none" fill-rule="evenodd" id="icon-flow-parallel"><g transform="translate(7.794758, 8.750000)" fill="#0073BB" fill-rule="nonzero"><path d="M16.199562,30.9615157 L16.1088907,30.9567289 L16.0428411,30.9462621 L15.9289205,30.9134016 L15.8581395,30.8824655 L15.747534,30.8144639 L15.6634156,30.7418457 L12.1634156,27.2418457 C11.8705224,26.9489525 11.8705224,26.4740788 12.1634156,26.1811856 C12.4296821,25.914919 12.8463458,25.890713 13.1399573,26.1085674 L13.2240758,26.1811856 L15.455,28.412 L15.455,12.999 L4.95524179,12.999 L4.955,28.446 L7.21966991,26.1811856 L7.30378835,26.1085674 C7.59739984,25.890713 8.01406352,25.914919 8.28033009,26.1811856 C8.54659665,26.4474521 8.5708027,26.8641158 8.35294824,27.1577273 L8.28033009,27.2418457 L4.78033009,30.7418457 L4.69621165,30.8144639 L4.689,30.818 C4.66089447,30.8406686 4.6237969,30.8633711 4.58539483,30.8825712 L4.50825575,30.9158403 L4.44163507,30.9367462 L4.36774058,30.9522701 L4.27779844,30.9610057 L4.22212648,30.9610007 L4.09909543,30.9462621 L3.99176083,30.9158467 L3.9143938,30.8824655 L3.82554184,30.8300094 L3.80378835,30.8144639 L3.71966991,30.7418457 L0.219669914,27.2418457 C-0.0732233047,26.9489525 -0.0732233047,26.4740788 0.219669914,26.1811856 C0.485936477,25.914919 0.902600159,25.890713 1.19621165,26.1085674 L1.28033009,26.1811856 L3.455,28.356 L3.45524179,12.25 C3.45524179,11.8703042 3.73739568,11.556509 4.10347124,11.5068466 L4.20524179,11.5 L15.455,11.502 L15.4552418,-1.42108547e-13 L16.9552418,-1.42108547e-13 L16.955,11.495 L28.1555171,11.5 C28.5351143,11.5001394 28.8487603,11.7822674 28.8983985,12.1482549 L28.9052418,12.25 L28.905,28.44 L31.1641955,26.1811856 L31.2483139,26.1085674 C31.5419254,25.890713 31.9585891,25.914919 32.2248557,26.1811856 C32.4911222,26.4474521 32.5153283,26.8641158 32.2974738,27.1577273 L32.2248557,27.2418457 L28.7248557,30.7418457 C28.6845386,30.7821628 28.6407734,30.8169302 28.5945094,30.8461478 L28.5328469,30.8811 L28.4268027,30.9248089 L28.3112733,30.9524264 L28.1887092,30.9615157 L28.1087231,30.9566189 L28.0352714,30.9445058 L27.9277401,30.9126603 L27.8920604,30.8980433 L27.8568141,30.8814079 C27.8351606,30.8704626 27.8145136,30.8587698 27.7943421,30.8460217 C27.7482777,30.8169302 27.7045126,30.7821628 27.6641955,30.7418457 L24.1641955,27.2418457 C23.8713023,26.9489525 23.8713023,26.4740788 24.1641955,26.1811856 C24.4304621,25.914919 24.8471258,25.890713 25.1407372,26.1085674 L25.2248557,26.1811856 L27.405,28.362 L27.4052418,12.999 L16.955,12.992 L16.955,28.389 L19.1634156,26.1811856 L19.247534,26.1085674 C19.5411455,25.890713 19.9578092,25.914919 20.2240758,26.1811856 C20.4903423,26.4474521 20.5145484,26.8641158 20.2966939,27.1577273 L20.2240758,27.2418457 L16.7240758,30.7418457 L16.6399573,30.8144639 L16.636,30.816 L16.589136,30.8490255 L16.5330413,30.8806066 L16.4260228,30.9248089 L16.3532729,30.9444467 L16.2795333,30.9566255 L16.199562,30.9615157 Z" fill="false"/></g></g><g stroke="none" stroke-width="1" fill="none" fill-rule="evenodd" id="icon-service-lam"><polygon fill="url(#gradient-orange)" fill-rule="nonzero" points="0 0 48 0 48 48 0 48"/><g transform="translate(11, 10)" fill="#FFFFFF"><path d="M26.5889213,27.8937088 L19.6925948,27.8937088 C19.4772752,27.8931074 19.2813916,27.7706914 19.1888047,27.578869 L9.43766764,7.45673404 L5.31218659,7.45673404 C5.00303594,7.45673404 4.75241983,7.20943823 4.75241983,6.90438337 L4.75241983,0.828526005 C4.75241983,0.523471153 5.00303594,0.276175335 5.31218659,0.276175335 L13.9325948,0.276175335 C14.1479143,0.276776788 14.3437979,0.399192787 14.4363848,0.591015217 L24.1427405,20.7131501 L26.5889213,20.7131501 C26.8980719,20.7131501 27.148688,20.9604459 27.148688,21.2655008 L27.148688,27.3413582 C27.148688,27.646413 26.8980719,27.8937088 26.5889213,27.8937088 Z M20.0452478,26.7890075 L26.0291545,26.7890075 L26.0291545,21.8178515 L23.7900875,21.8178515 C23.5747679,21.81725 23.3788843,21.694834 23.2862974,21.5030116 L13.5799417,1.38087667 L5.87755102,1.38087667 L5.87755102,6.3520327 L9.79591837,6.3520327 C10.0112379,6.35263416 10.2071215,6.47505016 10.2997085,6.66687259 L20.0452478,26.7890075 Z"/><path d="M8.10542274,27.8937099 L0.82845481,27.8937099 C0.635054571,27.8940907 0.455155006,27.7959347 0.352653061,27.634104 C0.243858391,27.4681848 0.233185428,27.2575536 0.324664723,27.0817533 L7.93749271,11.3894708 C8.03007964,11.1976484 8.22596323,11.0752324 8.4412828,11.0746298 L8.4412828,11.0746298 C8.65533487,11.0742082 8.85089022,11.1942751 8.94507289,11.3839473 L12.5891545,18.7799228 C12.6634688,18.931712 12.6634688,19.1086786 12.5891545,19.2604679 L8.6148105,27.5457279 C8.53147526,27.7523199 8.33072312,27.8894609 8.10542274,27.8937099 L8.10542274,27.8937099 Z M1.72408163,26.7890075 L7.75276968,26.7890075 L11.4640233,19.0560981 L8.44688047,12.8973881 L1.72408163,26.7890075 Z"/></g></g><g stroke="none" stroke-width="1" fill="none" fill-rule="evenodd" id="icon-service-events"><g fill="url(#gradient-pink)" fill-rule="nonzero"><rect x="0" y="0" width="48" height="48"/></g><path d="M31.2584891,38.2790698 C30.1297571,38.2790698 29.2116636,37.367814 29.2116636,36.2474884 C29.2116636,35.1271628 30.1297571,34.215907 31.2584891,34.215907 C32.3872211,34.215907 33.3053146,35.1271628 33.3053146,36.2474884 C33.3053146,37.367814 32.3872211,38.2790698 31.2584891,38.2790698 L31.2584891,38.2790698 Z M26.4152555,28.9069767 L20.5442511,28.9069767 L17.6083857,23.8604651 L20.5442511,18.8139535 L26.4152555,18.8139535 L29.3511208,23.8604651 L26.4152555,28.9069767 Z M16.4680323,13.5050233 C15.3393003,13.5050233 14.4204804,12.5937674 14.4204804,11.4734419 C14.4204804,10.3531163 15.3393003,9.44186047 16.4680323,9.44186047 C17.5960379,9.44186047 18.5148577,10.3531163 18.5148577,11.4734419 C18.5148577,12.5937674 17.5960379,13.5050233 16.4680323,13.5050233 L16.4680323,13.5050233 Z M31.2584891,32.7740465 C30.8677183,32.7740465 30.4980114,32.8526279 30.1464629,32.9701395 L27.9093364,29.2227442 L30.8190535,24.2209302 C30.948342,23.9974419 30.948342,23.7234884 30.8190535,23.5 L27.4633638,17.7325581 C27.3340753,17.5090698 27.0943832,17.372093 26.8343535,17.372093 L20.8333343,17.372093 L18.8315419,14.0190465 C19.5251964,13.383907 19.9675373,12.4820233 19.9675373,11.4734419 C19.9675373,9.55865116 18.397917,8 16.4680323,8 C14.5374211,8 12.9678009,9.55865116 12.9678009,11.4734419 C12.9678009,13.3889535 14.5374211,14.9468837 16.4680323,14.9468837 C16.8588031,14.9468837 17.22851,14.8683023 17.5800585,14.7507907 L19.4293195,17.847186 L16.1411794,23.5 C16.0111645,23.7234884 16.0111645,23.9974419 16.1411794,24.2209302 L19.4961428,29.9883721 C19.6254313,30.2118605 19.8651234,30.3488372 20.125153,30.3488372 L26.8343535,30.3488372 C26.8532384,30.3488372 26.8706705,30.3430698 26.8881027,30.3416279 L28.8949795,33.7018837 C28.201325,34.3370233 27.7589841,35.238907 27.7589841,36.2474884 C27.7589841,38.1622791 29.3286043,39.7209302 31.2584891,39.7209302 C33.1883739,39.7209302 34.7579941,38.1622791 34.7579941,36.2474884 C34.7579941,34.3319767 33.1883739,32.7740465 31.2584891,32.7740465 L31.2584891,32.7740465 Z M34.6265266,19.2724651 C33.4977946,19.2724651 32.5789748,18.3612093 32.5789748,17.2408837 C32.5789748,16.1205581 33.4977946,15.2093023 34.6265266,15.2093023 C35.7545323,15.2093023 36.6733521,16.1205581 36.6733521,17.2408837 C36.6733521,18.3612093 35.7545323,19.2724651 34.6265266,19.2724651 L34.6265266,19.2724651 Z M36.8222518,19.9234651 C37.6110568,19.2861628 38.1260317,18.3273256 38.1260317,17.2408837 C38.1260317,15.326093 36.5564114,13.7674419 34.6265266,13.7674419 C34.1667536,13.7674419 33.7302233,13.8611628 33.3285575,14.0219302 L31.3616293,11.1951628 C31.2250775,11.0005116 31.0013648,10.8837209 30.7631254,10.8837209 L24.2260674,10.8837209 L24.2260674,12.3255814 L30.3825233,12.3255814 L32.1206544,14.8243256 C31.50835,15.450093 31.1262953,16.3015116 31.1262953,17.2408837 C31.1262953,19.1563953 32.6959155,20.7143256 34.6265266,20.7143256 C34.9395791,20.7143256 35.2381047,20.6602558 35.5279143,20.5831163 L37.4352825,23.8604651 L34.6606646,28.6301395 L35.9186851,29.3510698 L38.9024889,24.2209302 C39.0325037,23.9974419 39.0325037,23.7234884 38.9024889,23.5 L36.8222518,19.9234651 Z M12.8363334,32.2492093 C11.7076014,32.2492093 10.7887816,31.3379535 10.7887816,30.2176279 C10.7887816,29.0973023 11.7076014,28.1860465 12.8363334,28.1860465 C13.9643391,28.1860465 14.8831589,29.0973023 14.8831589,30.2176279 C14.8831589,31.3379535 13.9643391,32.2492093 12.8363334,32.2492093 L12.8363334,32.2492093 Z M14.936908,32.9780698 C15.7809148,32.3436512 16.3358384,31.3480465 16.3358384,30.2176279 C16.3358384,28.3028372 14.7662182,26.744186 12.8363334,26.744186 C12.3308009,26.744186 11.8528693,26.8559302 11.4192445,27.0476977 L9.56489904,23.8604651 L12.7891213,18.3172326 L11.5311008,17.5963023 L8.09696636,23.5 C7.96767788,23.7234884 7.96767788,23.9974419 8.09696636,24.2209302 L10.2411214,27.9077674 C9.68547145,28.5234419 9.33610202,29.3272791 9.33610202,30.2176279 C9.33610202,32.1331395 10.9057223,33.6910698 12.8363334,33.6910698 C13.1014474,33.6910698 13.357119,33.6564651 13.6048009,33.6009535 L15.6385522,36.5257674 C15.7743778,36.7204186 15.9973641,36.8372093 16.2363299,36.8372093 L22.7733878,36.8372093 L22.7733878,35.3953488 L16.6183846,35.3953488 L14.936908,32.9780698 Z" fill="#FFFFFF"/></g><g stroke="none" stroke-width="1" fill="none" fill-rule="evenodd" id="icon-service-systems-manager"><polygon fill="url(#gradient-pink)" fill-rule="nonzero" points="0 0 48 0 48 48 0 48"/><g transform="translate(8 8) scale(0.032)"><path d="M642.9 750L821.4 750 821.4 785.7 642.9 785.7 642.9 821.4 607.1 821.4 607.1 785.7 535.7 785.7 535.7 750 607.1 750 607.1 714.3 642.9 714.3 642.9 750ZM785.7 571.4L821.4 571.4 821.4 607.1 785.7 607.1 785.7 642.8 750 642.8 750 607.1 535.7 607.1 535.7 571.4 750 571.4 750 535.7 785.7 535.7 785.7 571.4ZM155.6 607.1L321.4 607.1 321.4 642.8 155.6 642.8C136.6 642.8 117 642.8 96.8 630.2 60.6 607.8 0 555.3 0 455.9 0 335.3 83.2 291 131.7 275.5L130.8 259.9C130.8 160.5 197.8 58.7 286.6 22 390.5-21.3 500.5 0.2 581 79.4 606.1 103.9 626.6 133.8 642.4 168.6 674.4 142.4 717.9 133.6 758.3 147.1 808.2 163.7 839.4 209.4 843.3 270.4 901.5 280.2 1000 301.2 1000 428.5L964.3 428.5C964.3 334.2 903.9 316.6 830.9 304.6L822.4 303.2C817.6 302.4 813.3 299.6 810.5 295.5 807.8 291.3 806.9 286.3 808.1 281.5 808 231.4 785.8 193.9 747 180.9 711.7 169.2 673 181.4 650.5 211.4 646.6 216.7 640.3 219.2 633.5 218.3 627.1 217.4 621.6 212.9 619.4 206.8 604.6 165.8 583.3 131.6 556 104.8 486 36 390.5 17.4 300.4 55 225.3 86 166.5 175.5 166.5 258.8L168.3 287.7C168.8 296.3 163.1 304 154.8 306.1 110.3 317.1 35.7 351.3 35.7 455.9 35.7 533.9 79.2 577.3 115.6 599.9 126.7 606.7 138 607.1 155.6 607.1L155.6 607.1ZM964.3 720L932.8 718.2C924.5 717.9 916.3 723.5 914.4 732.1 908.4 758.8 897.9 784.2 883.2 807.4 878.5 814.8 879.9 824.5 886.4 830.3L909.9 851.3 851.3 909.9 830.4 886.5C824.6 879.9 814.9 878.6 807.5 883.2 784.3 897.9 758.9 908.5 732.1 914.5 723.6 916.4 717.7 924.2 718.2 933L720 964.3 637.1 964.3 639 932.9C639.5 924.2 633.6 916.4 625.1 914.5 598.3 908.4 572.9 897.9 549.6 883.2 542.3 878.6 532.6 879.9 526.8 886.4L505.9 909.9 447.2 851.3 470.7 830.3C477.3 824.6 478.6 814.9 474 807.5 459.3 784.3 448.8 758.9 442.7 732.1 440.8 723.6 434 718 424.3 718.2L392.9 720 392.9 637.1 424.4 638.9C434.1 639.1 440.9 633.5 442.8 625 448.9 598.3 459.4 572.9 474.1 549.7 478.8 542.4 477.4 532.7 470.9 526.9L447.2 505.8 505.9 447.2 526.9 470.8C532.7 477.3 542.4 478.6 549.8 474 573 459.4 598.4 448.9 625.1 442.9 633.6 440.9 639.4 433.1 639 424.4L637.1 392.8 720 392.8 718.2 424.4C717.7 433.1 723.6 441 732.1 442.9 758.8 448.9 784.1 459.4 807.3 474.1 814.7 478.7 824.4 477.4 830.2 470.9L851.3 447.2 909.9 505.8 886.3 526.8C879.8 532.7 878.4 542.3 883.1 549.7 897.8 572.9 908.3 598.2 914.4 625 916.3 633.5 923.1 639.5 932.8 638.9L964.3 637.1 964.3 720ZM981.1 600.4L945.4 602.4C939.6 581.9 931.4 562.3 921.1 543.7L947.8 519.8C951.5 516.6 953.6 511.9 953.8 507 953.9 502.1 952 497.4 948.5 493.9L863.2 408.5C859.7 405.1 855.2 403.3 850 403.3 845.1 403.5 840.5 405.6 837.2 409.3L813.3 436.1C794.8 425.8 775.1 417.6 754.7 411.8L756.7 376C757 371 755.3 366.2 751.9 362.7 748.5 359.1 743.8 357.1 738.9 357.1L618.3 357.1C613.3 357.1 608.6 359.1 605.3 362.7 601.9 366.2 600.1 371 600.4 376L602.5 411.8C582 417.6 562.4 425.7 543.8 436L519.9 409.3C516.6 405.6 512 403.5 507.1 403.3 502.3 403.4 497.4 405.1 494 408.5L408.6 493.9C405.1 497.4 403.2 502.1 403.4 507 403.5 511.9 405.7 516.6 409.4 519.8L436.1 543.7C425.8 562.3 417.6 582 411.8 602.4L376 600.4C371.2 600.3 366.3 601.8 362.7 605.2 359.2 608.6 357.1 613.3 357.1 618.2L357.1 738.9C357.1 743.8 359.2 748.5 362.7 751.9 366.3 755.2 371.2 757 376 756.7L411.6 754.6C417.5 775.2 425.6 794.9 436 813.5L409.4 837.2C405.7 840.5 403.5 845.1 403.4 850.1 403.2 854.9 405.1 859.7 408.6 863.2L494 948.5C497.4 952 502.1 953.6 507.1 953.7 512 953.6 516.6 951.5 519.9 947.8L543.6 921.1C562.3 931.6 582 939.7 602.5 945.6L600.4 981.1C600.1 986 601.9 990.8 605.3 994.4 608.6 998 613.3 1000 618.3 1000L738.9 1000C743.8 1000 748.5 998 751.9 994.4 755.3 990.8 757 986 756.7 981.1L754.7 945.6C775.2 939.7 794.9 931.6 813.5 921.2L837.2 947.8C840.5 951.5 845.1 953.6 850 953.7 855.4 953.8 859.7 952 863.2 948.5L948.5 863.2C952 859.7 953.9 854.9 953.8 850.1 953.6 845.1 951.5 840.5 947.8 837.2L921.1 813.4C931.5 794.8 939.6 775.2 945.5 754.6L981.1 756.7C985.9 757 990.8 755.2 994.4 751.9 998 748.5 1000 743.8 1000 738.9L1000 618.2C1000 613.3 998 608.6 994.4 605.2 990.8 601.8 985.9 600.3 981.1 600.4L981.1 600.4Z" fill="#FFFFFF"/></g></g></defs></g><style data-styled="true" data-styled-version="5.3.11">.gEcknq{cursor:pointer;}/*!sc*/
data-styled.g134[id="sc-eulNck"]{content:"gEcknq,"}/*!sc*/
.gfdgba{stroke:#555;background-color:#555;stroke-width:1px;}/*!sc*/
data-styled.g135[id="sc-dExYaf"]{content:"gfdgba,"}/*!sc*/
.hfZBfh{stroke-width:0;stroke:none;fill:#f2f3f3;}/*!sc*/
data-styled.g136[id="sc-iapWAC"]{content:"hfZBfh,"}/*!sc*/
.hsHYWk{font-size:10px;line-height:12.5;stroke:none;}/*!sc*/
data-styled.g137[id="sc-kqGoIF"]{content:"hsHYWk,"}/*!sc*/
.mKMzz{fill:var(--color-text-form-secondary-btuye6,#687078);}/*!sc*/
data-styled.g163[id="sc-dhFUGM"]{content:"mKMzz,"}/*!sc*/
.kfGofs{font-weight:400;font-size:12px;line-height:16px;font-family:Amazon Ember,Arial,Roboto,Arial,sans-serif;text-shadow:none;fill:var(--color-text-button-primary-default-qh066v,#16191f);}/*!sc*/
data-styled.g164[id="sc-fbKhjd"]{content:"kfGofs,"}/*!sc*/
.iQVBKq{fill:#fff9cc;stroke:var(--color-text-form-secondary-btuye6,#687078);stroke-width:0.6px;}/*!sc*/
data-styled.g165[id="sc-leSDtu"]{content:"iQVBKq,"}/*!sc*/
.dUiIqL{fill:#fff9cc;stroke:var(--color-text-form-secondary-btuye6,#687078);stroke-width:0.6px;}/*!sc*/
data-styled.g166[id="sc-bJBgwP"]{content:"dUiIqL,"}/*!sc*/
.blVNQB{stroke:var(--color-border-control-default-ie1oqq,#687078);stroke-width:1px;fill:var(--color-background-container-content-x1dxuu,#ffffff);opacity:0.5;}/*!sc*/
.node &gt; .new-look-state-node.has-errors &gt; .bounding-box &gt; .sc-dGCmGc{stroke:var(--color-border-status-error-si9bvu,#d13212);fill:var(--color-background-status-error-qqw3y6,#fdf3f1);}/*!sc*/
.selected &gt; .node &gt; .new-look-state-node &gt; .bounding-box &gt; .sc-dGCmGc{stroke:var(--color-border-status-info-fjyzd6,#0073bb);fill:var(--color-background-status-info-60ssq8,#f1faff);}/*!sc*/
.selected &gt; .node &gt; .new-look-state-node.has-errors &gt; .bounding-box &gt; .sc-dGCmGc{stroke:var(--color-border-status-error-si9bvu,#d13212);fill:#fde0da;}/*!sc*/
data-styled.g167[id="sc-dGCmGc"]{content:"blVNQB,"}/*!sc*/
</style><style>
.new-look-state-node &gt; rect:first-of-type {
  stroke: #687078;
  stroke-width: 1px;
  fill: #FFFFFF;
}

.new-look-state-node .error-icon circle {
 stroke-linejoin: round;
}

.new-look-state-node .error-icon circle, .new-look-state-node .error-icon path {
 stroke: var(--color-border-status-error-si9bvu, #d13212);
 fill: none;
 stroke-width: 2px;
}

.new-look-state-node.has-errors &gt; rect:first-of-type {
 stroke: var(--color-border-status-error-si9bvu, #d13212);
 fill: var(--color-background-status-error-qqw3y6, #fdf3f1);
}

.new-look-state-node.has-errors &gt; .bounding-box &gt; .new-look-state-node-sub &gt; rect {
  stroke: var(--color-border-status-error-si9bvu, #d13212);
  fill: var(--color-background-status-error-qqw3y6, #fdf3f1);
}

.new-look-state-node .handle path {
  stroke: var(--color-border-dropdown-item-hover-t6obhh, #879596);
  stroke-width: 1px;
  fill: none;
}

.new-look-state-node {
  font-weight: 400;
  font-family: Amazon Ember, Arial, Roboto, Arial, sans-serif;
  text-shadow: none;
}

.new-look-state-node .line1 {
  fill: #687078;
  font-size: 12px;
}

.new-look-state-node .line2 {
  fill: #16191f;
}

.selected.node &gt; .new-look-state-node &gt; rect,
.selected.node &gt; .new-look-state-node &gt; .new-look-state-node &gt; rect,
.selected.node &gt; .new-look-state-node &gt; .bounding-box &gt; rect,
.selected.node &gt; .new-look-state-node.has-errors &gt; rect,
.selected.node &gt; .new-look-state-node.has-errors &gt; .bounding-box &gt; rect,
.selected.node &gt; .new-look-state-node.has-errors &gt; .new-look-state-node &gt; rect,
.selected.node &gt; .new-look-state-node &gt; .bounding-box &gt; .new-look-state-node-sub &gt; rect
 {
  stroke: var(--color-border-status-info-fjyzd6, #0073bb);
  fill: var(--color-background-status-info-60ssq8, #f1faff);
  stroke-width: 1px;
}

.new-look-state-node-sub .item-source.not-specified {
  height: 15px;
  color: #687078;
  font-family: "Amazon Ember";
  font-size: 12px;
  letter-spacing: 0;
  line-height: 16px;
  font-weight: 400;
}
.new-look-state-node-sub .item-source .item-source_name{
  font-weight: 600;
}
.new-look-state-node-sub .item-source.not-specified .item-source_name{
  font-weight: 400;
}

.new-look-state-node-sub .item-source.not-specified {
  font-style: italic;
}

.new-look-state-node-sub &gt; rect,
.new-look-state-node &gt; .bounding-box &gt; rect {
  stroke: var(--color-border-control-default-ie1oqq, #687078);
  fill: #ffffff;
}

.new-look-graph .drag-source {
  opacity: 0.2;
}

.new-look-graph .edge, .new-look-graph path.starting-connection {
  stroke-width: 1px;
  stroke: var(--color-text-form-secondary-btuye6, #687078);
  marker-end: url(#large-arrowhead);
}

.new-look-graph .edge-label {
  cursor: pointer;
}

.new-look-graph .edge-label rect {
  stroke-width: 1px;
  stroke: var(--color-border-control-default-ie1oqq, #687078);
  fill: #fafafa;
}

.new-look-graph .edge-label.selected rect {
  stroke: var(--color-border-status-info-fjyzd6, #0073bb);
  fill: var(--color-background-status-info-60ssq8, #f1faff);
  stroke-width: 0.6px;
}



.new-look-graph .edge-label .label {
  fill: var(--color-text-form-secondary-btuye6, #687078);
  font-family: Amazon Ember, Arial, Roboto, Arial, sans-serif;
}

/* centering the shape text */
@-moz-document url-prefix() {
  .new-look-graph .shape + text,
  .new-look-graph .edge-label text {
    transform: translateY(3.5px);
  }
}

.new-look-graph .edge path {
  marker-end: url(#large-arrowhead) !important;
}

.new-look-graph .edge.selected path{
  stroke: var(--color-border-status-info-fjyzd6, #0073bb);
  stroke-width: 1.1px;
}

.new-look-graph .edge.dragging-over path, .new-look-graph  g.dragging-over .starting-connection {
  stroke: #5C86FF;
  stroke-width: 2px;
}

.new-look-graph .edge.dragging-over path, .new-look-graph .dragging-over path.starting-connection {
  marker-end: url(#large-highlighted-arrowhead) !important;
}

.new-look-graph .edge.dragging-over .edge-label text {
  fill: #5C86FF;
}

#large-highlighted-arrowhead {
  fill: #5C86FF;
}

#large-highlighted-arrowhead path {
  stroke: none;
}

.new-look-graph .edge.drop-not-supported path, g.drop-not-supported .starting-connection {
  stroke: red;
}

.new-look-graph .edge.drop-not-supported .edge-label text {
  fill: red;
}

.new-look-graph .edge.drop-not-supported path {
  marker-end: url(#large-error-arrowhead) !important;
}

#large-error-arrowhead {
  fill: red;
}

.node-container * &gt; .icon  {
  &gt; rect {
    fill: #fafafa;
  }
  &gt; line {
    stroke: #d5dbdb;
  }
}


.node.Placeholder.dragging-over rect {
  stroke: var(--color-border-status-info-fjyzd6, #0073bb);
  fill: var(--color-background-status-info-60ssq8, #f1faff);
  stroke-width: 2px;
}

.node.Placeholder.dragging-over .label {
  fill: var(--color-text-status-info-f9d9f2, #0073bb);
}

g.Placeholder rect {
  stroke-dasharray: 5 4;
  stroke: var(--color-border-dropdown-item-hover-t6obhh, #879596);
  fill: #ffffff;
  stroke-width: 1px;
}

g.Placeholder .label {
  font-style: italic;
  fill: var(--color-text-input-placeholder-lhl4lu, #687078);
}

.node.Placeholder.drop-not-supported rect {
  stroke: red;
}

.node.Placeholder.drop-not-supported .label {
  fill: red;
}
</style><style>.line2 { font-size: 14px }</style></svg>
