<!DOCTYPE svg PUBLIC "-//W3C//DTD SVG 1.1//EN" "https://www.w3.org/Graphics/SVG/1.1/DTD/svg11.dtd"><svg xmlns="http://www.w3.org/2000/svg" class="sc-jlGgGc czlKLP graph" data-testid="graph" role="img" aria-labelledby="polymath-graph-title" width="366" height="315"><title id="polymath-graph-title">Workflow Studio State Machine Graph</title><g transform="translate(12,12)" class="new-look-graph"><g class="nodes"><g class="node-container" transform="translate(171,22)"><g><circle class="sc-leSDtu iQVBKq shape" r="22"/><text class="sc-fbKhjd kfGofs label"><tspan xml:space="preserve" text-anchor="middle" alignment-baseline="central">Start</tspan></text></g></g><g class="node-container" transform="translate(171,103.5)"><g class="sc-eulNck gEcknq node state Task" data-testid="graph-Convert ICAv2 WES event to WRSC Event" data-state-id="Convert ICAv2 WES event to WRSC Event" data-state-type="Task"><g class="new-look-state-node "><rect x="-171" y="-24.5" width="342" height="49" rx="3" ry="3"/><g class="handle" transform="translate(-171,-24.5)"><path d="M5,16 L5,34 M8,16 L8,34"/></g><g class="icon" transform="translate(-155,-24)"><rect fill="var(--color-background-container-header-etndi4, #fafafa)" x="0.0361026108" y="0.0181291967" width="48" height="48"/><line x1="47.5" y1="0.49122807" x2="47.5" y2="47.5" stroke="var(--color-board-placeholder-active-qurjro, #d5dbdb)" stroke-linecap="square"/><line x1="0.5" y1="0.49122807" x2="0.5" y2="47.5" stroke="var(--color-board-placeholder-active-qurjro, #d5dbdb)" stroke-linecap="square"/><use href="#icon-service-lam" aria-hidden="true"><title>Lambda</title></use></g><g class="text-lines" transform="translate(-99,-24.5)"><text transform="translate(0,17)" class="line1"><tspan xml:space="preserve" text-anchor="start">Lambda: Invoke</tspan></text><text transform="translate(0,35.5)" class="line2 label"><tspan xml:space="preserve" text-anchor="start">Convert ICAv2 WES event to WRSC Event</tspan></text></g></g></g></g><g class="node-container" transform="translate(171,187.5)"><g class="sc-eulNck gEcknq node state Task" data-testid="graph-Push WRSC Event" data-state-id="Push WRSC Event" data-state-type="Task"><g class="new-look-state-node "><rect x="-120" y="-24.5" width="240" height="49" rx="3" ry="3"/><g class="handle" transform="translate(-120,-24.5)"><path d="M5,16 L5,34 M8,16 L8,34"/></g><g class="icon" transform="translate(-104,-24)"><rect fill="var(--color-background-container-header-etndi4, #fafafa)" x="0.0361026108" y="0.0181291967" width="48" height="48"/><line x1="47.5" y1="0.49122807" x2="47.5" y2="47.5" stroke="var(--color-board-placeholder-active-qurjro, #d5dbdb)" stroke-linecap="square"/><line x1="0.5" y1="0.49122807" x2="0.5" y2="47.5" stroke="var(--color-board-placeholder-active-qurjro, #d5dbdb)" stroke-linecap="square"/><use href="#icon-service-events" aria-hidden="true"><title>Amazon EventBridge</title></use></g><g class="text-lines" transform="translate(-48,-24.5)"><text transform="translate(0,17)" class="line1"><tspan xml:space="preserve" text-anchor="start">EventBridge: PutEvents</tspan></text><text transform="translate(0,35.5)" class="line2 label"><tspan xml:space="preserve" text-anchor="start">Push WRSC Event</tspan></text></g></g></g></g><g class="node-container" transform="translate(171,269)"><g><circle class="sc-leSDtu iQVBKq shape" r="22"/><text class="sc-fbKhjd kfGofs label"><tspan xml:space="preserve" text-anchor="middle" alignment-baseline="central">End</tspan></text></g></g></g><g class="edges"><g class="sc-dExYaf gfdgba edge"><path id="state-Convert ICAv2 WES event to WRSC Event:state-Push WRSC Event:normal" d="M171,128L171,130.91666666666666C171,133.83333333333334,171,139.66666666666666,171,145.5C171,151.33333333333334,171,157.16666666666666,171,160.08333333333334L171,163" marker-end="url(#arrowhead)" fill="none"/></g><g class="sc-dExYaf gfdgba edge"><path id="start:state-Convert ICAv2 WES event to WRSC Event" d="M171,44L171,46.916666666666664C171,49.833333333333336,171,55.666666666666664,171,61.5C171,67.33333333333333,171,73.16666666666667,171,76.08333333333333L171,79" marker-end="url(#arrowhead)" fill="none"/></g><g class="sc-dExYaf gfdgba edge"><path id="state-Push WRSC Event:end:normal" d="M171,212L171,214.91666666666666C171,217.83333333333334,171,223.66666666666666,171,229.5C171,235.33333333333334,171,241.16666666666666,171,244.08333333333334L171,247" marker-end="url(#arrowhead)" fill="none"/></g></g><defs><marker id="arrowhead" markerWidth="8" markerHeight="6" refX="7" refY="3" orient="auto" class="sc-dhFUGM mKMzz"><polygon points="0 0, 8 3, 0 6"/></marker><marker id="highlighted-arrowhead" markerWidth="6" markerHeight="4" refX="5" refY="2" orient="auto" class="sc-dhFUGM mKMzz"><polygon points="0 0, 6 2, 0 4"/></marker><marker id="error-arrowhead" markerWidth="6" markerHeight="4" refX="5" refY="2" orient="auto" class="sc-dhFUGM mKMzz"><polygon points="0 0, 6 2, 0 4"/></marker><marker id="large-arrowhead" markerWidth="10" markerHeight="8" refX="9" refY="4" orient="auto" class="sc-dhFUGM mKMzz"><polygon points="0 0, 10 4, 0 8"/></marker><marker id="large-highlighted-arrowhead" markerWidth="5.5" markerHeight="4" refX="4.5" refY="2" orient="auto" class="sc-dhFUGM mKMzz"><polygon points="0 0, 5.5 2, 0 4"/></marker><marker id="large-error-arrowhead" markerWidth="10" markerHeight="8" refX="9" refY="4" orient="auto" class="sc-dhFUGM mKMzz"><polygon points="0 0, 10 4, 0 8"/></marker><linearGradient x1="0%" y1="100%" x2="100%" y2="0%" id="gradient-orange"><stop stop-color="#C8511B" offset="0%"/><stop stop-color="#FF9900" offset="100%"/></linearGradient><linearGradient x1="0%" y1="100%" x2="100%" y2="0%" id="gradient-turquoise"><stop stop-color="#055F4E" offset="0%"/><stop stop-color="#56C0A7" offset="100%"/></linearGradient><linearGradient x1="0%" y1="100%" x2="100%" y2="0%" id="gradient-blue"><stop stop-color="#2E27AD" offset="0%"/><stop stop-color="#527FFF" offset="100%"/></linearGradient><linearGradient x1="0%" y1="100%" x2="100%" y2="0%" id="gradient-pink"><stop stop-color="#B0084D" offset="0%"/><stop stop-color="#FF4F8B" offset="100%"/></linearGradient><linearGradient x1="0%" y1="100%" x2="100%" y2="0%" id="gradient-red"><stop stop-color="#BD0816" offset="0%"/><stop stop-color="#FF5252" offset="100%"/></linearGradient><linearGradient x1="0%" y1="100%" x2="100%" y2="0%" id="gradient-green"><stop stop-color="#1B660F" offset="0%"/><stop stop-color="#6CAE3E" offset="100%"/></linearGradient><linearGradient x1="0%" y1="100%" x2="100%" y2="0%" id="gradient-purple"><stop stop-color="#4D27A8" offset="0%"/><stop stop-color="#A166FF" offset="100%"/></linearGradient><linearGradient x1="0%" y1="100%" x2="100%" y2="0%" id="gradient-grey"><stop stop-color="#DCDCDC" offset="0%"/><stop stop-color="#F6F5F7" offset="100%"/></linearGradient><linearGradient x1="0%" y1="100%" x2="100%" y2="0%" id="gradient-light-pink"><stop stop-color="#DD344C" offset="0%"/><stop stop-color="#DD344C" offset="100%"/></linearGradient>,<linearGradient x1="0%" y1="100%" x2="100%" y2="0%" id="gradient-ag"><stop stop-color="#BC1356" offset="0%"/><stop stop-color="#F34482" offset="100%"/></linearGradient><linearGradient x1="0%" y1="100%" x2="100%" y2="0%" id="gradient-athena"><stop stop-color="#5930B5" offset="0%"/><stop stop-color="#945DF2" offset="100%"/></linearGradient><linearGradient x1="0%" y1="100%" x2="100%" y2="0%" id="gradient-emr"><stop stop-color="#5930B5" offset="0%"/><stop stop-color="#945DF2" offset="100%"/></linearGradient><linearGradient x1="0%" y1="100%" x2="100%" y2="0%" id="gradient-glue"><stop stop-color="#5930B5" offset="0%"/><stop stop-color="#945DF2" offset="100%"/></linearGradient><linearGradient x1="0%" y1="100%" x2="100%" y2="0%" id="gradient-sns"><stop stop-color="#BC1356" offset="0%"/><stop stop-color="#F34482" offset="100%"/></linearGradient><linearGradient x1="0%" y1="100%" x2="100%" y2="0%" id="gradient-states"><stop stop-color="#BC1356" offset="0%"/><stop stop-color="#F34482" offset="100%"/></linearGradient><linearGradient x1="0%" y1="100%" x2="100%" y2="0%" id="gradient-generic"><stop stop-color="#ccc" offset="0%"/><stop stop-color="#ddd" offset="100%"/></linearGradient><g stroke="none" stroke-width="1" fill="none" fill-rule="evenodd" id="icon-service-lam"><polygon fill="url(#gradient-orange)" fill-rule="nonzero" points="0 0 48 0 48 48 0 48"/><g transform="translate(11, 10)" fill="#FFFFFF"><path d="M26.5889213,27.8937088 L19.6925948,27.8937088 C19.4772752,27.8931074 19.2813916,27.7706914 19.1888047,27.578869 L9.43766764,7.45673404 L5.31218659,7.45673404 C5.00303594,7.45673404 4.75241983,7.20943823 4.75241983,6.90438337 L4.75241983,0.828526005 C4.75241983,0.523471153 5.00303594,0.276175335 5.31218659,0.276175335 L13.9325948,0.276175335 C14.1479143,0.276776788 14.3437979,0.399192787 14.4363848,0.591015217 L24.1427405,20.7131501 L26.5889213,20.7131501 C26.8980719,20.7131501 27.148688,20.9604459 27.148688,21.2655008 L27.148688,27.3413582 C27.148688,27.646413 26.8980719,27.8937088 26.5889213,27.8937088 Z M20.0452478,26.7890075 L26.0291545,26.7890075 L26.0291545,21.8178515 L23.7900875,21.8178515 C23.5747679,21.81725 23.3788843,21.694834 23.2862974,21.5030116 L13.5799417,1.38087667 L5.87755102,1.38087667 L5.87755102,6.3520327 L9.79591837,6.3520327 C10.0112379,6.35263416 10.2071215,6.47505016 10.2997085,6.66687259 L20.0452478,26.7890075 Z"/><path d="M8.10542274,27.8937099 L0.82845481,27.8937099 C0.635054571,27.8940907 0.455155006,27.7959347 0.352653061,27.634104 C0.243858391,27.4681848 0.233185428,27.2575536 0.324664723,27.0817533 L7.93749271,11.3894708 C8.03007964,11.1976484 8.22596323,11.0752324 8.4412828,11.0746298 L8.4412828,11.0746298 C8.65533487,11.0742082 8.85089022,11.1942751 8.94507289,11.3839473 L12.5891545,18.7799228 C12.6634688,18.931712 12.6634688,19.1086786 12.5891545,19.2604679 L8.6148105,27.5457279 C8.53147526,27.7523199 8.33072312,27.8894609 8.10542274,27.8937099 L8.10542274,27.8937099 Z M1.72408163,26.7890075 L7.75276968,26.7890075 L11.4640233,19.0560981 L8.44688047,12.8973881 L1.72408163,26.7890075 Z"/></g></g><g stroke="none" stroke-width="1" fill="none" fill-rule="evenodd" id="icon-service-events"><g fill="url(#gradient-pink)" fill-rule="nonzero"><rect x="0" y="0" width="48" height="48"/></g><path d="M31.2584891,38.2790698 C30.1297571,38.2790698 29.2116636,37.367814 29.2116636,36.2474884 C29.2116636,35.1271628 30.1297571,34.215907 31.2584891,34.215907 C32.3872211,34.215907 33.3053146,35.1271628 33.3053146,36.2474884 C33.3053146,37.367814 32.3872211,38.2790698 31.2584891,38.2790698 L31.2584891,38.2790698 Z M26.4152555,28.9069767 L20.5442511,28.9069767 L17.6083857,23.8604651 L20.5442511,18.8139535 L26.4152555,18.8139535 L29.3511208,23.8604651 L26.4152555,28.9069767 Z M16.4680323,13.5050233 C15.3393003,13.5050233 14.4204804,12.5937674 14.4204804,11.4734419 C14.4204804,10.3531163 15.3393003,9.44186047 16.4680323,9.44186047 C17.5960379,9.44186047 18.5148577,10.3531163 18.5148577,11.4734419 C18.5148577,12.5937674 17.5960379,13.5050233 16.4680323,13.5050233 L16.4680323,13.5050233 Z M31.2584891,32.7740465 C30.8677183,32.7740465 30.4980114,32.8526279 30.1464629,32.9701395 L27.9093364,29.2227442 L30.8190535,24.2209302 C30.948342,23.9974419 30.948342,23.7234884 30.8190535,23.5 L27.4633638,17.7325581 C27.3340753,17.5090698 27.0943832,17.372093 26.8343535,17.372093 L20.8333343,17.372093 L18.8315419,14.0190465 C19.5251964,13.383907 19.9675373,12.4820233 19.9675373,11.4734419 C19.9675373,9.55865116 18.397917,8 16.4680323,8 C14.5374211,8 12.9678009,9.55865116 12.9678009,11.4734419 C12.9678009,13.3889535 14.5374211,14.9468837 16.4680323,14.9468837 C16.8588031,14.9468837 17.22851,14.8683023 17.5800585,14.7507907 L19.4293195,17.847186 L16.1411794,23.5 C16.0111645,23.7234884 16.0111645,23.9974419 16.1411794,24.2209302 L19.4961428,29.9883721 C19.6254313,30.2118605 19.8651234,30.3488372 20.125153,30.3488372 L26.8343535,30.3488372 C26.8532384,30.3488372 26.8706705,30.3430698 26.8881027,30.3416279 L28.8949795,33.7018837 C28.201325,34.3370233 27.7589841,35.238907 27.7589841,36.2474884 C27.7589841,38.1622791 29.3286043,39.7209302 31.2584891,39.7209302 C33.1883739,39.7209302 34.7579941,38.1622791 34.7579941,36.2474884 C34.7579941,34.3319767 33.1883739,32.7740465 31.2584891,32.7740465 L31.2584891,32.7740465 Z M34.6265266,19.2724651 C33.4977946,19.2724651 32.5789748,18.3612093 32.5789748,17.2408837 C32.5789748,16.1205581 33.4977946,15.2093023 34.6265266,15.2093023 C35.7545323,15.2093023 36.6733521,16.1205581 36.6733521,17.2408837 C36.6733521,18.3612093 35.7545323,19.2724651 34.6265266,19.2724651 L34.6265266,19.2724651 Z M36.8222518,19.9234651 C37.6110568,19.2861628 38.1260317,18.3273256 38.1260317,17.2408837 C38.1260317,15.326093 36.5564114,13.7674419 34.6265266,13.7674419 C34.1667536,13.7674419 33.7302233,13.8611628 33.3285575,14.0219302 L31.3616293,11.1951628 C31.2250775,11.0005116 31.0013648,10.8837209 30.7631254,10.8837209 L24.2260674,10.8837209 L24.2260674,12.3255814 L30.3825233,12.3255814 L32.1206544,14.8243256 C31.50835,15.450093 31.1262953,16.3015116 31.1262953,17.2408837 C31.1262953,19.1563953 32.6959155,20.7143256 34.6265266,20.7143256 C34.9395791,20.7143256 35.2381047,20.6602558 35.5279143,20.5831163 L37.4352825,23.8604651 L34.6606646,28.6301395 L35.9186851,29.3510698 L38.9024889,24.2209302 C39.0325037,23.9974419 39.0325037,23.7234884 38.9024889,23.5 L36.8222518,19.9234651 Z M12.8363334,32.2492093 C11.7076014,32.2492093 10.7887816,31.3379535 10.7887816,30.2176279 C10.7887816,29.0973023 11.7076014,28.1860465 12.8363334,28.1860465 C13.9643391,28.1860465 14.8831589,29.0973023 14.8831589,30.2176279 C14.8831589,31.3379535 13.9643391,32.2492093 12.8363334,32.2492093 L12.8363334,32.2492093 Z M14.936908,32.9780698 C15.7809148,32.3436512 16.3358384,31.3480465 16.3358384,30.2176279 C16.3358384,28.3028372 14.7662182,26.744186 12.8363334,26.744186 C12.3308009,26.744186 11.8528693,26.8559302 11.4192445,27.0476977 L9.56489904,23.8604651 L12.7891213,18.3172326 L11.5311008,17.5963023 L8.09696636,23.5 C7.96767788,23.7234884 7.96767788,23.9974419 8.09696636,24.2209302 L10.2411214,27.9077674 C9.68547145,28.5234419 9.33610202,29.3272791 9.33610202,30.2176279 C9.33610202,32.1331395 10.9057223,33.6910698 12.8363334,33.6910698 C13.1014474,33.6910698 13.357119,33.6564651 13.6048009,33.6009535 L15.6385522,36.5257674 C15.7743778,36.7204186 15.9973641,36.8372093 16.2363299,36.8372093 L22.7733878,36.8372093 L22.7733878,35.3953488 L16.6183846,35.3953488 L14.936908,32.9780698 Z" fill="#FFFFFF"/></g></defs></g><style data-styled="true" data-styled-version="5.3.11">.gEcknq{cursor:pointer;}/*!sc*/
data-styled.g134[id="sc-eulNck"]{content:"gEcknq,"}/*!sc*/
.gfdgba{stroke:#555;background-color:#555;stroke-width:1px;}/*!sc*/
data-styled.g135[id="sc-dExYaf"]{content:"gfdgba,"}/*!sc*/
.mKMzz{fill:var(--color-text-form-secondary-btuye6,#687078);}/*!sc*/
data-styled.g163[id="sc-dhFUGM"]{content:"mKMzz,"}/*!sc*/
.kfGofs{font-weight:400;font-size:12px;line-height:16px;font-family:Amazon Ember,Arial,Roboto,Arial,sans-serif;text-shadow:none;fill:var(--color-text-button-primary-default-qh066v,#16191f);}/*!sc*/
data-styled.g164[id="sc-fbKhjd"]{content:"kfGofs,"}/*!sc*/
.iQVBKq{fill:#fff9cc;stroke:var(--color-text-form-secondary-btuye6,#687078);stroke-width:0.6px;}/*!sc*/
data-styled.g165[id="sc-leSDtu"]{content:"iQVBKq,"}/*!sc*/
</style><style>
.new-look-state-node &gt; rect:first-of-type {
  stroke: #687078;
  stroke-width: 1px;
  fill: #FFFFFF;
}

.new-look-state-node .error-icon circle {
 stroke-linejoin: round;
}

.new-look-state-node .error-icon circle, .new-look-state-node .error-icon path {
 stroke: var(--color-border-status-error-si9bvu, #d13212);
 fill: none;
 stroke-width: 2px;
}

.new-look-state-node.has-errors &gt; rect:first-of-type {
 stroke: var(--color-border-status-error-si9bvu, #d13212);
 fill: var(--color-background-status-error-qqw3y6, #fdf3f1);
}

.new-look-state-node.has-errors &gt; .bounding-box &gt; .new-look-state-node-sub &gt; rect {
  stroke: var(--color-border-status-error-si9bvu, #d13212);
  fill: var(--color-background-status-error-qqw3y6, #fdf3f1);
}

.new-look-state-node .handle path {
  stroke: var(--color-border-dropdown-item-hover-t6obhh, #879596);
  stroke-width: 1px;
  fill: none;
}

.new-look-state-node {
  font-weight: 400;
  font-family: Amazon Ember, Arial, Roboto, Arial, sans-serif;
  text-shadow: none;
}

.new-look-state-node .line1 {
  fill: #687078;
  font-size: 12px;
}

.new-look-state-node .line2 {
  fill: #16191f;
}

.selected.node &gt; .new-look-state-node &gt; rect,
.selected.node &gt; .new-look-state-node &gt; .new-look-state-node &gt; rect,
.selected.node &gt; .new-look-state-node &gt; .bounding-box &gt; rect,
.selected.node &gt; .new-look-state-node.has-errors &gt; rect,
.selected.node &gt; .new-look-state-node.has-errors &gt; .bounding-box &gt; rect,
.selected.node &gt; .new-look-state-node.has-errors &gt; .new-look-state-node &gt; rect,
.selected.node &gt; .new-look-state-node &gt; .bounding-box &gt; .new-look-state-node-sub &gt; rect
 {
  stroke: var(--color-border-status-info-fjyzd6, #0073bb);
  fill: var(--color-background-status-info-60ssq8, #f1faff);
  stroke-width: 1px;
}

.new-look-state-node-sub .item-source.not-specified {
  height: 15px;
  color: #687078;
  font-family: "Amazon Ember";
  font-size: 12px;
  letter-spacing: 0;
  line-height: 16px;
  font-weight: 400;
}
.new-look-state-node-sub .item-source .item-source_name{
  font-weight: 600;
}
.new-look-state-node-sub .item-source.not-specified .item-source_name{
  font-weight: 400;
}

.new-look-state-node-sub .item-source.not-specified {
  font-style: italic;
}

.new-look-state-node-sub &gt; rect,
.new-look-state-node &gt; .bounding-box &gt; rect {
  stroke: var(--color-border-control-default-ie1oqq, #687078);
  fill: #ffffff;
}

.new-look-graph .drag-source {
  opacity: 0.2;
}

.new-look-graph .edge, .new-look-graph path.starting-connection {
  stroke-width: 1px;
  stroke: var(--color-text-form-secondary-btuye6, #687078);
  marker-end: url(#large-arrowhead);
}

.new-look-graph .edge-label {
  cursor: pointer;
}

.new-look-graph .edge-label rect {
  stroke-width: 1px;
  stroke: var(--color-border-control-default-ie1oqq, #687078);
  fill: #fafafa;
}

.new-look-graph .edge-label.selected rect {
  stroke: var(--color-border-status-info-fjyzd6, #0073bb);
  fill: var(--color-background-status-info-60ssq8, #f1faff);
  stroke-width: 0.6px;
}



.new-look-graph .edge-label .label {
  fill: var(--color-text-form-secondary-btuye6, #687078);
  font-family: Amazon Ember, Arial, Roboto, Arial, sans-serif;
}

/* centering the shape text */
@-moz-document url-prefix() {
  .new-look-graph .shape + text,
  .new-look-graph .edge-label text {
    transform: translateY(3.5px);
  }
}

.new-look-graph .edge path {
  marker-end: url(#large-arrowhead) !important;
}

.new-look-graph .edge.selected path{
  stroke: var(--color-border-status-info-fjyzd6, #0073bb);
  stroke-width: 1.1px;
}

.new-look-graph .edge.dragging-over path, .new-look-graph  g.dragging-over .starting-connection {
  stroke: #5C86FF;
  stroke-width: 2px;
}

.new-look-graph .edge.dragging-over path, .new-look-graph .dragging-over path.starting-connection {
  marker-end: url(#large-highlighted-arrowhead) !important;
}

.new-look-graph .edge.dragging-over .edge-label text {
  fill: #5C86FF;
}

#large-highlighted-arrowhead {
  fill: #5C86FF;
}

#large-highlighted-arrowhead path {
  stroke: none;
}

.new-look-graph .edge.drop-not-supported path, g.drop-not-supported .starting-connection {
  stroke: red;
}

.new-look-graph .edge.drop-not-supported .edge-label text {
  fill: red;
}

.new-look-graph .edge.drop-not-supported path {
  marker-end: url(#large-error-arrowhead) !important;
}

#large-error-arrowhead {
  fill: red;
}

.node-container * &gt; .icon  {
  &gt; rect {
    fill: #fafafa;
  }
  &gt; line {
    stroke: #d5dbdb;
  }
}


.node.Placeholder.dragging-over rect {
  stroke: var(--color-border-status-info-fjyzd6, #0073bb);
  fill: var(--color-background-status-info-60ssq8, #f1faff);
  stroke-width: 2px;
}

.node.Placeholder.dragging-over .label {
  fill: var(--color-text-status-info-f9d9f2, #0073bb);
}

g.Placeholder rect {
  stroke-dasharray: 5 4;
  stroke: var(--color-border-dropdown-item-hover-t6obhh, #879596);
  fill: #ffffff;
  stroke-width: 1px;
}

g.Placeholder .label {
  font-style: italic;
  fill: var(--color-text-input-placeholder-lhl4lu, #687078);
}

.node.Placeholder.drop-not-supported rect {
  stroke: red;
}

.node.Placeholder.drop-not-supported .label {
  fill: red;
}
</style><style>.line2 { font-size: 14px }</style></svg>
