<?xml version="1.0" encoding="UTF-8"?>
<!-- Do not edit this file with editors other than draw.io -->
<!DOCTYPE svg PUBLIC "-//W3C//DTD SVG 1.1//EN" "http://www.w3.org/Graphics/SVG/1.1/DTD/svg11.dtd">
<svg xmlns="http://www.w3.org/2000/svg" style="background: transparent; background-color: transparent; color-scheme: light dark;" xmlns:xlink="http://www.w3.org/1999/xlink" version="1.1" width="941px" height="761px" viewBox="0 0 941 761" content="&lt;mxfile host=&quot;Electron&quot; agent=&quot;Mozilla/5.0 (Windows NT 10.0; Win64; x64) AppleWebKit/537.36 (KHTML, like Gecko) draw.io/29.3.0 Chrome/140.0.7339.249 Electron/38.7.2 Safari/537.36&quot; scale=&quot;1&quot; border=&quot;0&quot; version=&quot;29.3.0&quot;&gt;&#10;  &lt;diagram name=&quot;Page-1&quot; id=&quot;T8yzopWJ26ECpfH2IEqP&quot;&gt;&#10;    &lt;mxGraphModel dx=&quot;2276&quot; dy=&quot;1941&quot; grid=&quot;1&quot; gridSize=&quot;10&quot; guides=&quot;1&quot; tooltips=&quot;1&quot; connect=&quot;1&quot; arrows=&quot;1&quot; fold=&quot;1&quot; page=&quot;1&quot; pageScale=&quot;1&quot; pageWidth=&quot;850&quot; pageHeight=&quot;1100&quot; math=&quot;0&quot; shadow=&quot;0&quot;&gt;&#10;      &lt;root&gt;&#10;        &lt;mxCell id=&quot;0&quot; /&gt;&#10;        &lt;mxCell id=&quot;1&quot; parent=&quot;0&quot; /&gt;&#10;        &lt;mxCell id=&quot;GUhzyJTjOdKqyh4BdqbK-1&quot; parent=&quot;1&quot; style=&quot;rounded=0;whiteSpace=wrap;html=1;hachureGap=4;fontFamily=Architects Daughter;fontSource=https%3A%2F%2Ffonts.googleapis.com%2Fcss%3Ffamily%3DArchitects%2BDaughter;&quot; value=&quot;&quot; vertex=&quot;1&quot;&gt;&#10;          &lt;mxGeometry height=&quot;760&quot; width=&quot;940&quot; x=&quot;-150&quot; y=&quot;-320&quot; as=&quot;geometry&quot; /&gt;&#10;        &lt;/mxCell&gt;&#10;        &lt;mxCell id=&quot;gTSoOkBcEcdVYQ-6uKTe-31&quot; edge=&quot;1&quot; parent=&quot;1&quot; source=&quot;_dqH1-S2IZvqTkZDlXDK-26&quot; style=&quot;edgeStyle=orthogonalEdgeStyle;rounded=0;sketch=1;hachureGap=4;jiggle=2;curveFitting=1;orthogonalLoop=1;jettySize=auto;html=1;fontFamily=Architects Daughter;fontSource=https%3A%2F%2Ffonts.googleapis.com%2Fcss%3Ffamily%3DArchitects%2BDaughter;&quot; target=&quot;_dqH1-S2IZvqTkZDlXDK-30&quot;&gt;&#10;          &lt;mxGeometry relative=&quot;1&quot; as=&quot;geometry&quot; /&gt;&#10;        &lt;/mxCell&gt;&#10;        &lt;mxCell id=&quot;_dqH1-S2IZvqTkZDlXDK-26&quot; parent=&quot;1&quot; style=&quot;shape=manualInput;whiteSpace=wrap;html=1;sketch=1;hachureGap=4;jiggle=2;curveFitting=1;fontFamily=Architects Daughter;fontSource=https%3A%2F%2Ffonts.googleapis.com%2Fcss%3Ffamily%3DArchitects%2BDaughter;fontSize=18;&quot; value=&quot;&amp;lt;div&amp;gt;&amp;lt;br&amp;gt;&amp;lt;/div&amp;gt;Empty Dragen WGTS DNA&amp;lt;div&amp;gt;Draft&amp;lt;/div&amp;gt;&quot; vertex=&quot;1&quot;&gt;&#10;          &lt;mxGeometry height=&quot;150&quot; width=&quot;130&quot; x=&quot;-100&quot; y=&quot;-190&quot; as=&quot;geometry&quot; /&gt;&#10;        &lt;/mxCell&gt;&#10;        &lt;mxCell id=&quot;_dqH1-S2IZvqTkZDlXDK-31&quot; edge=&quot;1&quot; parent=&quot;1&quot; source=&quot;_dqH1-S2IZvqTkZDlXDK-30&quot; style=&quot;edgeStyle=orthogonalEdgeStyle;rounded=0;sketch=1;hachureGap=4;jiggle=2;curveFitting=1;orthogonalLoop=1;jettySize=auto;html=1;fontFamily=Architects Daughter;fontSource=https%3A%2F%2Ffonts.googleapis.com%2Fcss%3Ffamily%3DArchitects%2BDaughter;exitX=1;exitY=0.5;exitDx=0;exitDy=0;&quot; target=&quot;_dqH1-S2IZvqTkZDlXDK-37&quot;&gt;&#10;          &lt;mxGeometry relative=&quot;1&quot; as=&quot;geometry&quot;&gt;&#10;            &lt;mxPoint x=&quot;580&quot; y=&quot;-115&quot; as=&quot;targetPoint&quot; /&gt;&#10;          &lt;/mxGeometry&gt;&#10;        &lt;/mxCell&gt;&#10;        &lt;mxCell id=&quot;_dqH1-S2IZvqTkZDlXDK-30&quot; parent=&quot;1&quot; style=&quot;rounded=1;whiteSpace=wrap;html=1;sketch=1;hachureGap=4;jiggle=2;curveFitting=1;fontFamily=Architects Daughter;fontSource=https%3A%2F%2Ffonts.googleapis.com%2Fcss%3Ffamily%3DArchitects%2BDaughter;verticalAlign=top;fontSize=28;&quot; value=&quot;Engine Parameters / Tags / Inputs &amp;lt;br&amp;gt;Added to Payload&quot; vertex=&quot;1&quot;&gt;&#10;          &lt;mxGeometry height=&quot;250&quot; width=&quot;320&quot; x=&quot;180&quot; y=&quot;-240&quot; as=&quot;geometry&quot; /&gt;&#10;        &lt;/mxCell&gt;&#10;        &lt;mxCell id=&quot;_dqH1-S2IZvqTkZDlXDK-37&quot; parent=&quot;1&quot; style=&quot;sketch=0;outlineConnect=0;fontColor=#232F3E;gradientColor=none;fillColor=#E7157B;strokeColor=none;dashed=0;verticalLabelPosition=bottom;verticalAlign=top;align=center;html=1;fontSize=14;fontStyle=0;aspect=fixed;pointerEvents=1;shape=mxgraph.aws4.event;hachureGap=4;jiggle=2;curveFitting=1;fontFamily=Architects Daughter;fontSource=https%3A%2F%2Ffonts.googleapis.com%2Fcss%3Ffamily%3DArchitects%2BDaughter;&quot; value=&quot;New &amp;lt;br&amp;gt;Dragen WGTS DNA&amp;lt;br&amp;gt;WRU Draft Event&quot; vertex=&quot;1&quot;&gt;&#10;          &lt;mxGeometry height=&quot;100&quot; width=&quot;100&quot; x=&quot;600&quot; y=&quot;-165&quot; as=&quot;geometry&quot; /&gt;&#10;        &lt;/mxCell&gt;&#10;        &lt;mxCell id=&quot;gTSoOkBcEcdVYQ-6uKTe-24&quot; parent=&quot;1&quot; style=&quot;sketch=0;points=[[0,0,0],[0.25,0,0],[0.5,0,0],[0.75,0,0],[1,0,0],[0,1,0],[0.25,1,0],[0.5,1,0],[0.75,1,0],[1,1,0],[0,0.25,0],[0,0.5,0],[0,0.75,0],[1,0.25,0],[1,0.5,0],[1,0.75,0]];outlineConnect=0;fontColor=#232F3E;fillColor=#E7157B;strokeColor=#ffffff;dashed=0;verticalLabelPosition=bottom;verticalAlign=top;align=center;html=1;fontSize=17;fontStyle=0;aspect=fixed;shape=mxgraph.aws4.resourceIcon;resIcon=mxgraph.aws4.step_functions;hachureGap=4;jiggle=2;curveFitting=1;fontFamily=Architects Daughter;fontSource=https%3A%2F%2Ffonts.googleapis.com%2Fcss%3Ffamily%3DArchitects%2BDaughter;&quot; value=&quot;Populate Draft Data&amp;lt;div&amp;gt;Step Function&amp;lt;/div&amp;gt;&quot; vertex=&quot;1&quot;&gt;&#10;          &lt;mxGeometry height=&quot;78&quot; width=&quot;78&quot; x=&quot;301&quot; y=&quot;-130&quot; as=&quot;geometry&quot; /&gt;&#10;        &lt;/mxCell&gt;&#10;        &lt;mxCell id=&quot;gTSoOkBcEcdVYQ-6uKTe-35&quot; edge=&quot;1&quot; parent=&quot;1&quot; style=&quot;endArrow=none;dashed=1;html=1;dashPattern=1 3;strokeWidth=2;rounded=0;sketch=1;hachureGap=4;jiggle=2;curveFitting=1;fontFamily=Architects Daughter;fontSource=https%3A%2F%2Ffonts.googleapis.com%2Fcss%3Ffamily%3DArchitects%2BDaughter;&quot; value=&quot;&quot;&gt;&#10;          &lt;mxGeometry height=&quot;50&quot; relative=&quot;1&quot; width=&quot;50&quot; as=&quot;geometry&quot;&gt;&#10;            &lt;mxPoint x=&quot;-120&quot; y=&quot;-290&quot; as=&quot;sourcePoint&quot; /&gt;&#10;            &lt;mxPoint x=&quot;730&quot; y=&quot;-290&quot; as=&quot;targetPoint&quot; /&gt;&#10;          &lt;/mxGeometry&gt;&#10;        &lt;/mxCell&gt;&#10;        &lt;mxCell id=&quot;gTSoOkBcEcdVYQ-6uKTe-36&quot; connectable=&quot;0&quot; parent=&quot;gTSoOkBcEcdVYQ-6uKTe-35&quot; style=&quot;edgeLabel;html=1;align=center;verticalAlign=middle;resizable=0;points=[];sketch=1;hachureGap=4;jiggle=2;curveFitting=1;fontFamily=Architects Daughter;fontSource=https%3A%2F%2Ffonts.googleapis.com%2Fcss%3Ffamily%3DArchitects%2BDaughter;&quot; value=&quot;&amp;lt;font style=&amp;quot;font-size: 21px;&amp;quot;&amp;gt;Sequencing Run&amp;amp;nbsp;&amp;lt;/font&amp;gt;&amp;lt;span style=&amp;quot;font-size: 21px; background-color: light-dark(#ffffff, var(--ge-dark-color, #121212)); color: light-dark(rgb(0, 0, 0), rgb(255, 255, 255));&amp;quot;&amp;gt;Started Event /&amp;amp;nbsp;&amp;lt;/span&amp;gt;&amp;lt;span style=&amp;quot;background-color: light-dark(#ffffff, var(--ge-dark-color, #121212)); color: light-dark(rgb(0, 0, 0), rgb(255, 255, 255)); font-size: 21px;&amp;quot;&amp;gt;Analysis Glue Creation&amp;lt;/span&amp;gt;&quot; vertex=&quot;1&quot;&gt;&#10;          &lt;mxGeometry relative=&quot;1&quot; x=&quot;0.0157&quot; y=&quot;3&quot; as=&quot;geometry&quot;&gt;&#10;            &lt;mxPoint as=&quot;offset&quot; /&gt;&#10;          &lt;/mxGeometry&gt;&#10;        &lt;/mxCell&gt;&#10;        &lt;mxCell id=&quot;gTSoOkBcEcdVYQ-6uKTe-37&quot; edge=&quot;1&quot; parent=&quot;1&quot; style=&quot;endArrow=none;dashed=1;html=1;dashPattern=1 3;strokeWidth=2;rounded=0;sketch=1;hachureGap=4;jiggle=2;curveFitting=1;fontFamily=Architects Daughter;fontSource=https%3A%2F%2Ffonts.googleapis.com%2Fcss%3Ffamily%3DArchitects%2BDaughter;&quot; value=&quot;&quot;&gt;&#10;          &lt;mxGeometry height=&quot;50&quot; relative=&quot;1&quot; width=&quot;50&quot; as=&quot;geometry&quot;&gt;&#10;            &lt;mxPoint x=&quot;-110&quot; y=&quot;100&quot; as=&quot;sourcePoint&quot; /&gt;&#10;            &lt;mxPoint x=&quot;740&quot; y=&quot;100&quot; as=&quot;targetPoint&quot; /&gt;&#10;          &lt;/mxGeometry&gt;&#10;        &lt;/mxCell&gt;&#10;        &lt;mxCell id=&quot;gTSoOkBcEcdVYQ-6uKTe-38&quot; connectable=&quot;0&quot; parent=&quot;gTSoOkBcEcdVYQ-6uKTe-37&quot; style=&quot;edgeLabel;html=1;align=center;verticalAlign=middle;resizable=0;points=[];sketch=1;hachureGap=4;jiggle=2;curveFitting=1;fontFamily=Architects Daughter;fontSource=https%3A%2F%2Ffonts.googleapis.com%2Fcss%3Ffamily%3DArchitects%2BDaughter;&quot; value=&quot;&amp;lt;font style=&amp;quot;font-size: 21px;&amp;quot;&amp;gt;Post BCLConvert Complete&amp;lt;/font&amp;gt;&quot; vertex=&quot;1&quot;&gt;&#10;          &lt;mxGeometry relative=&quot;1&quot; x=&quot;0.0157&quot; y=&quot;3&quot; as=&quot;geometry&quot;&gt;&#10;            &lt;mxPoint as=&quot;offset&quot; /&gt;&#10;          &lt;/mxGeometry&gt;&#10;        &lt;/mxCell&gt;&#10;        &lt;mxCell id=&quot;gTSoOkBcEcdVYQ-6uKTe-43&quot; edge=&quot;1&quot; parent=&quot;1&quot; source=&quot;gTSoOkBcEcdVYQ-6uKTe-50&quot; style=&quot;edgeStyle=orthogonalEdgeStyle;rounded=0;sketch=1;hachureGap=4;jiggle=2;curveFitting=1;orthogonalLoop=1;jettySize=auto;html=1;fontFamily=Architects Daughter;fontSource=https%3A%2F%2Ffonts.googleapis.com%2Fcss%3Ffamily%3DArchitects%2BDaughter;exitX=1;exitY=0.5;exitDx=0;exitDy=0;&quot; target=&quot;gTSoOkBcEcdVYQ-6uKTe-45&quot; value=&quot;&quot;&gt;&#10;          &lt;mxGeometry relative=&quot;1&quot; as=&quot;geometry&quot;&gt;&#10;            &lt;mxPoint x=&quot;55&quot; y=&quot;240&quot; as=&quot;sourcePoint&quot; /&gt;&#10;          &lt;/mxGeometry&gt;&#10;        &lt;/mxCell&gt;&#10;        &lt;mxCell id=&quot;gTSoOkBcEcdVYQ-6uKTe-44&quot; edge=&quot;1&quot; parent=&quot;1&quot; source=&quot;gTSoOkBcEcdVYQ-6uKTe-45&quot; style=&quot;edgeStyle=orthogonalEdgeStyle;rounded=0;sketch=1;hachureGap=4;jiggle=2;curveFitting=1;orthogonalLoop=1;jettySize=auto;html=1;exitX=1;exitY=0.5;exitDx=0;exitDy=0;fontFamily=Architects Daughter;fontSource=https%3A%2F%2Ffonts.googleapis.com%2Fcss%3Ffamily%3DArchitects%2BDaughter;&quot; target=&quot;gTSoOkBcEcdVYQ-6uKTe-49&quot;&gt;&#10;          &lt;mxGeometry relative=&quot;1&quot; as=&quot;geometry&quot; /&gt;&#10;        &lt;/mxCell&gt;&#10;        &lt;mxCell id=&quot;gTSoOkBcEcdVYQ-6uKTe-45&quot; parent=&quot;1&quot; style=&quot;rounded=1;whiteSpace=wrap;html=1;sketch=1;hachureGap=4;jiggle=2;curveFitting=1;fontFamily=Architects Daughter;fontSource=https%3A%2F%2Ffonts.googleapis.com%2Fcss%3Ffamily%3DArchitects%2BDaughter;verticalAlign=top;fontSize=24;&quot; value=&quot;Validate Draft Payload&quot; vertex=&quot;1&quot;&gt;&#10;          &lt;mxGeometry height=&quot;180&quot; width=&quot;320&quot; x=&quot;180&quot; y=&quot;150&quot; as=&quot;geometry&quot; /&gt;&#10;        &lt;/mxCell&gt;&#10;        &lt;mxCell id=&quot;gTSoOkBcEcdVYQ-6uKTe-46&quot; parent=&quot;1&quot; style=&quot;sketch=0;points=[[0,0,0],[0.25,0,0],[0.5,0,0],[0.75,0,0],[1,0,0],[0,1,0],[0.25,1,0],[0.5,1,0],[0.75,1,0],[1,1,0],[0,0.25,0],[0,0.5,0],[0,0.75,0],[1,0.25,0],[1,0.5,0],[1,0.75,0]];outlineConnect=0;fontColor=#232F3E;fillColor=#E7157B;strokeColor=#ffffff;dashed=0;verticalLabelPosition=bottom;verticalAlign=top;align=center;html=1;fontSize=17;fontStyle=0;aspect=fixed;shape=mxgraph.aws4.resourceIcon;resIcon=mxgraph.aws4.step_functions;hachureGap=4;jiggle=2;curveFitting=1;fontFamily=Architects Daughter;fontSource=https%3A%2F%2Ffonts.googleapis.com%2Fcss%3Ffamily%3DArchitects%2BDaughter;&quot; value=&quot;Validate Data&amp;lt;br&amp;gt;Step Function&quot; vertex=&quot;1&quot;&gt;&#10;          &lt;mxGeometry height=&quot;78&quot; width=&quot;78&quot; x=&quot;301&quot; y=&quot;201&quot; as=&quot;geometry&quot; /&gt;&#10;        &lt;/mxCell&gt;&#10;        &lt;mxCell id=&quot;gTSoOkBcEcdVYQ-6uKTe-49&quot; parent=&quot;1&quot; style=&quot;sketch=0;outlineConnect=0;fontColor=#232F3E;gradientColor=none;fillColor=#E7157B;strokeColor=none;dashed=0;verticalLabelPosition=bottom;verticalAlign=top;align=center;html=1;fontSize=14;fontStyle=0;aspect=fixed;pointerEvents=1;shape=mxgraph.aws4.event;hachureGap=4;jiggle=2;curveFitting=1;fontFamily=Architects Daughter;fontSource=https%3A%2F%2Ffonts.googleapis.com%2Fcss%3Ffamily%3DArchitects%2BDaughter;&quot; value=&quot;New&amp;amp;nbsp;&amp;lt;div&amp;gt;Dragen WGTS DNA&amp;lt;br&amp;gt;WRU Ready&amp;amp;nbsp;Event&amp;lt;/div&amp;gt;&quot; vertex=&quot;1&quot;&gt;&#10;          &lt;mxGeometry height=&quot;100&quot; width=&quot;100&quot; x=&quot;600&quot; y=&quot;190&quot; as=&quot;geometry&quot; /&gt;&#10;        &lt;/mxCell&gt;&#10;        &lt;mxCell id=&quot;gTSoOkBcEcdVYQ-6uKTe-50&quot; parent=&quot;1&quot; style=&quot;rhombus;whiteSpace=wrap;html=1;sketch=1;hachureGap=4;jiggle=2;curveFitting=1;fontFamily=Architects Daughter;fontSource=https%3A%2F%2Ffonts.googleapis.com%2Fcss%3Ffamily%3DArchitects%2BDaughter;fontSize=14;&quot; value=&quot;&amp;lt;font style=&amp;quot;font-size: 15px;&amp;quot;&amp;gt;Completed&amp;amp;nbsp;&amp;lt;br&amp;gt;Dragen WGTS DNA&amp;lt;br&amp;gt;WRSC Draft Event&amp;lt;/font&amp;gt;&quot; vertex=&quot;1&quot;&gt;&#10;          &lt;mxGeometry height=&quot;170&quot; width=&quot;180&quot; x=&quot;-125&quot; y=&quot;155&quot; as=&quot;geometry&quot; /&gt;&#10;        &lt;/mxCell&gt;&#10;      &lt;/root&gt;&#10;    &lt;/mxGraphModel&gt;&#10;  &lt;/diagram&gt;&#10;&lt;/mxfile&gt;&#10;"><defs/><g><g data-cell-id="0"><g data-cell-id="1"><g data-cell-id="GUhzyJTjOdKqyh4BdqbK-1"><g transform="translate(0.5,0.5)"><rect x="0" y="0" width="940" height="760" fill="#ffffff" stroke="#000000" pointer-events="all" style="fill: light-dark(#ffffff, var(--ge-dark-color, #121212)); stroke: light-dark(rgb(0, 0, 0), rgb(255, 255, 255));"/></g></g><g data-cell-id="gTSoOkBcEcdVYQ-6uKTe-31"><g transform="translate(0.5,0.5)"><path d="M 180 205 L 323.63 205" fill="none" stroke="none" pointer-events="stroke"/><path d="M 328.88 205 L 321.88 208.5 L 323.63 205 L 321.88 201.5 Z" fill="none" stroke="none" pointer-events="all"/><path d="M 180 205 C 215.62 205.2 257.1 205.23 323.63 205 M 180 205 C 236.43 205.99 292.64 206.22 323.63 205" fill="none" stroke="#000000" stroke-linejoin="round" stroke-linecap="round" stroke-miterlimit="10" pointer-events="stroke" style="stroke: light-dark(rgb(0, 0, 0), rgb(255, 255, 255));"/><path d="M 328.88 205 C 326.25 205.69 323.97 206.11 321.88 208.5 C 323.09 207.09 322.74 208.04 323.63 205 C 322.4 204.76 321.92 203.98 321.88 201.5 C 323.82 203.96 325.33 201.67 328.88 205" fill="#000000" stroke="none" pointer-events="all" style="fill: light-dark(rgb(0, 0, 0), rgb(255, 255, 255));"/><path d="M 328.88 205 C 326.57 205.14 326.55 206.05 321.88 208.5 M 328.88 205 C 325.96 206.95 322.99 208.42 321.88 208.5 M 321.88 208.5 C 322.28 207.12 323.89 206.4 323.63 205 M 321.88 208.5 C 322.07 207.65 323.13 206.75 323.63 205 M 323.63 205 C 322.67 204.03 323.33 203.35 321.88 201.5 M 323.63 205 C 323.4 204.27 322.73 203.73 321.88 201.5 M 321.88 201.5 C 325.11 203.73 327.45 203.1 328.88 205 M 321.88 201.5 C 324.61 202.44 326.34 203.85 328.88 205" fill="none" stroke="#000000" stroke-linejoin="round" stroke-linecap="round" stroke-miterlimit="10" pointer-events="all" style="stroke: light-dark(rgb(0, 0, 0), rgb(255, 255, 255));"/></g></g><g data-cell-id="_dqH1-S2IZvqTkZDlXDK-26"><g transform="translate(0.5,0.5)"><path d="M 50 280 L 50 160 L 180 130 L 180 280 Z" fill="none" stroke="none" pointer-events="all"/><path d="M 50 280 C 50.19 240.53 57.73 212.31 50 160 C 87.93 152.37 131.65 140.28 180 130 C 188.63 159.81 186.58 188.25 180 280 C 138.87 281.93 103.83 274.93 50 280" fill="#ffffff" stroke="none" pointer-events="all" style="fill: light-dark(#ffffff, var(--ge-dark-color, #121212));"/><path d="M 50 280 C 52.63 235.72 47.05 188.71 50 160 M 50 280 C 49.72 246.74 48.25 215.86 50 160 M 50 160 C 81.85 149.51 122.82 142.7 180 130 M 50 160 C 88.66 151.1 128.95 141.59 180 130 M 180 130 C 179.16 162.77 178.67 200.93 180 280 M 180 130 C 183.19 177.89 181.24 225.11 180 280 M 180 280 C 126.47 279.54 80.47 283.26 50 280 M 180 280 C 131.28 279.43 82.15 277.56 50 280" fill="none" stroke="#000000" stroke-linejoin="round" stroke-linecap="round" stroke-miterlimit="10" pointer-events="all" style="stroke: light-dark(rgb(0, 0, 0), rgb(255, 255, 255));"/></g><g><g><switch><foreignObject style="overflow: visible; text-align: left;" pointer-events="none" width="100%" height="100%" requiredFeatures="http://www.w3.org/TR/SVG11/feature#Extensibility"><div xmlns="http://www.w3.org/1999/xhtml" style="display: flex; align-items: unsafe center; justify-content: unsafe center; width: 128px; height: 1px; padding-top: 205px; margin-left: 51px;"><div style="box-sizing: border-box; font-size: 0; text-align: center; color: #000000; "><div style="display: inline-block; font-size: 18px; font-family: 'Architects Daughter'; color: light-dark(#000000, #ffffff); line-height: 1.2; pointer-events: all; white-space: normal; word-wrap: normal; "><div><br /></div>Empty Dragen WGTS DNA<div>Draft</div></div></div></div></foreignObject><text x="115" y="210" fill="light-dark(#000000, #ffffff)" font-family="'Architects Daughter'" font-size="18px" text-anchor="middle">Empty Dragen W...</text></switch></g></g></g><g data-cell-id="_dqH1-S2IZvqTkZDlXDK-31"><g transform="translate(0.5,0.5)"><path d="M 650 205 L 743.63 205" fill="none" stroke="none" pointer-events="stroke"/><path d="M 748.88 205 L 741.88 208.5 L 743.63 205 L 741.88 201.5 Z" fill="none" stroke="none" pointer-events="all"/><path d="M 650 205 C 684.92 207.06 716.93 207.01 743.63 205 M 650 205 C 682.5 203.53 715.37 204.91 743.63 205" fill="none" stroke="#000000" stroke-linejoin="round" stroke-linecap="round" stroke-miterlimit="10" pointer-events="stroke" style="stroke: light-dark(rgb(0, 0, 0), rgb(255, 255, 255));"/><path d="M 748.88 205 C 746.63 208.1 744.57 205.15 741.88 208.5 C 741.97 206.81 742.37 207.24 743.63 205 C 744.07 204.55 743.07 203.39 741.88 201.5 C 743.1 203.87 747.79 204.69 748.88 205" fill="#000000" stroke="none" pointer-events="all" style="fill: light-dark(rgb(0, 0, 0), rgb(255, 255, 255));"/><path d="M 748.88 205 C 746.38 207.28 742.69 208.56 741.88 208.5 M 748.88 205 C 746.52 205.74 744.28 207.49 741.88 208.5 M 741.88 208.5 C 742.83 206.83 742.54 206.25 743.63 205 M 741.88 208.5 C 742.25 207.75 742.74 206.86 743.63 205 M 743.63 205 C 743.23 204.13 742.48 203.36 741.88 201.5 M 743.63 205 C 743.29 203.57 742.48 202.57 741.88 201.5 M 741.88 201.5 C 743.75 201.63 745.55 203.17 748.88 205 M 741.88 201.5 C 744.56 202.5 747.04 204.34 748.88 205" fill="none" stroke="#000000" stroke-linejoin="round" stroke-linecap="round" stroke-miterlimit="10" pointer-events="all" style="stroke: light-dark(rgb(0, 0, 0), rgb(255, 255, 255));"/></g></g><g data-cell-id="_dqH1-S2IZvqTkZDlXDK-30"><g transform="translate(0.5,0.5)"><rect x="330" y="80" width="320" height="250" rx="37.5" ry="37.5" fill="none" stroke="none" pointer-events="all"/><path d="M 367.5 80 C 464.6 83.93 557.21 78.83 612.5 80 C 639.79 75.1 650.87 89.54 650 117.5 C 647.39 172.96 645.8 233.67 650 292.5 C 653.01 322.46 640.33 335.49 612.5 330 C 558.77 324.19 507.42 326.69 367.5 330 C 344.57 330.89 333.02 318.84 330 292.5 C 324.36 249.26 330.52 206.36 330 117.5 C 334.03 94.95 337.12 78.88 367.5 80" fill="#ffffff" stroke="none" pointer-events="all" style="fill: light-dark(#ffffff, var(--ge-dark-color, #121212));"/><path d="M 367.5 80 C 460.54 73.1 551.25 72.73 612.5 80 M 367.5 80 C 436.07 80.57 501.01 83 612.5 80 M 612.5 80 C 639.27 83.76 649.38 94.76 650 117.5 M 612.5 80 C 639.52 79.66 650.28 91.57 650 117.5 M 650 117.5 C 651.6 173.16 652.55 229.03 650 292.5 M 650 117.5 C 649.36 151.68 652 190.66 650 292.5 M 650 292.5 C 646.37 317.64 636.19 328.43 612.5 330 M 650 292.5 C 651.3 315.52 637.79 327.94 612.5 330 M 612.5 330 C 540.53 325.17 466.99 330.01 367.5 330 M 612.5 330 C 545.17 328.06 475.64 328.22 367.5 330 M 367.5 330 C 343.51 333.96 330.12 319.6 330 292.5 M 367.5 330 C 339.57 326.06 333.49 318.69 330 292.5 M 330 292.5 C 331.76 228.39 329.77 162.72 330 117.5 M 330 292.5 C 331.97 242.87 333.53 188.99 330 117.5 M 330 117.5 C 330.71 94.57 343.12 79.86 367.5 80 M 330 117.5 C 332.67 90.35 339.74 77.03 367.5 80" fill="none" stroke="#000000" stroke-linejoin="round" stroke-linecap="round" stroke-miterlimit="10" pointer-events="all" style="stroke: light-dark(rgb(0, 0, 0), rgb(255, 255, 255));"/></g><g><g><switch><foreignObject style="overflow: visible; text-align: left;" pointer-events="none" width="100%" height="100%" requiredFeatures="http://www.w3.org/TR/SVG11/feature#Extensibility"><div xmlns="http://www.w3.org/1999/xhtml" style="display: flex; align-items: unsafe flex-start; justify-content: unsafe center; width: 318px; height: 1px; padding-top: 87px; margin-left: 331px;"><div style="box-sizing: border-box; font-size: 0; text-align: center; color: #000000; "><div style="display: inline-block; font-size: 28px; font-family: 'Architects Daughter'; color: light-dark(#000000, #ffffff); line-height: 1.2; pointer-events: all; white-space: normal; word-wrap: normal; ">Engine Parameters / Tags / Inputs <br />Added to Payload</div></div></div></foreignObject><text x="490" y="115" fill="light-dark(#000000, #ffffff)" font-family="'Architects Daughter'" font-size="28px" text-anchor="middle">Engine Parameters / Tag...</text></switch></g></g></g><g data-cell-id="_dqH1-S2IZvqTkZDlXDK-37"><g transform="translate(0.5,0.5)"><rect x="750" y="155" width="100" height="100" fill="none" stroke="none" pointer-events="all"/><path d="M 815.19 175.19 L 811 173.4 L 817.38 158.44 L 821.58 160.23 Z M 828.23 186.65 L 825.49 183.01 L 838.58 173.18 L 841.32 176.83 Z M 833.14 198.51 L 849.43 196.45 L 850 200.97 L 833.71 203.03 Z M 831.91 215.73 L 847.03 221.99 L 845.29 226.21 L 830.16 219.95 Z M 822.14 230.08 L 832.05 242.98 L 828.43 245.76 L 818.52 232.86 Z M 806.44 237.73 L 808.48 253.81 L 803.95 254.38 L 801.91 238.3 Z M 784.81 234.81 L 789 236.6 L 782.62 251.56 L 778.42 249.77 Z M 771.77 223.34 L 774.51 226.99 L 761.42 236.82 L 758.68 233.17 Z M 766.86 211.49 L 750.57 213.55 L 750 209.03 L 766.29 206.97 Z M 768.09 194.26 L 752.97 188.01 L 754.71 183.79 L 769.84 190.05 Z M 777.86 179.92 L 767.95 167.02 L 771.57 164.24 L 781.48 177.14 Z M 793.56 172.27 L 791.52 156.19 L 796.05 155.62 L 798.09 171.7 Z M 809.4 221.77 L 789.64 221.77 L 779.76 204.66 L 789.64 187.55 L 809.4 187.55 L 819.27 204.66 Z M 823.88 203.52 L 812.69 184.13 C 812.28 183.42 811.53 182.99 810.71 182.99 L 788.33 182.99 C 787.51 182.99 786.76 183.42 786.35 184.13 L 775.15 203.52 C 774.75 204.23 774.75 205.09 775.15 205.8 L 786.35 225.19 C 786.76 225.9 787.51 226.33 788.33 226.33 L 810.71 226.33 C 811.53 226.33 812.28 225.9 812.69 225.19 L 823.88 205.8 C 824.29 205.09 824.29 204.23 823.88 203.52 Z" fill="#e7157b" stroke="none" pointer-events="all" style="fill: rgb(231, 21, 123);"/></g><g><g><switch><foreignObject style="overflow: visible; text-align: left;" pointer-events="none" width="100%" height="100%" requiredFeatures="http://www.w3.org/TR/SVG11/feature#Extensibility"><div xmlns="http://www.w3.org/1999/xhtml" style="display: flex; align-items: unsafe flex-start; justify-content: unsafe center; width: 1px; height: 1px; padding-top: 262px; margin-left: 800px;"><div style="box-sizing: border-box; font-size: 0; text-align: center; color: #232F3E; "><div style="display: inline-block; font-size: 14px; font-family: 'Architects Daughter'; color: #232F3E; line-height: 1.2; pointer-events: all; white-space: nowrap; ">New <br />Dragen WGTS DNA<br />WRU Draft Event</div></div></div></foreignObject><text x="800" y="276" fill="#232F3E" font-family="'Architects Daughter'" font-size="14px" text-anchor="middle">New...</text></switch></g></g></g><g data-cell-id="gTSoOkBcEcdVYQ-6uKTe-24"><g transform="translate(0.5,0.5)"><path d="M 451 190 L 529 190 L 529 268 L 451 268 Z" fill="#e7157b" stroke="none" pointer-events="all" style="fill: rgb(231, 21, 123);"/><path d="M 507.83 243.49 L 472.17 243.49 L 472.17 239.03 L 482.2 239.03 C 482.82 239.03 483.31 238.53 483.31 237.91 L 483.31 231.23 C 483.31 230.61 482.82 230.11 482.2 230.11 L 472.17 230.11 L 472.17 227.89 L 482.2 227.89 C 482.82 227.89 483.31 227.39 483.31 226.77 L 483.31 220.09 C 483.31 219.47 482.82 218.97 482.2 218.97 L 472.17 218.97 L 472.17 215.63 L 507.83 215.63 L 507.83 220.09 L 510.06 220.09 L 510.06 214.51 C 510.06 213.9 509.56 213.4 508.94 213.4 L 491.11 213.4 L 491.11 209.95 C 493.96 209.42 496.13 206.93 496.13 203.93 C 496.13 200.55 493.38 197.8 490 197.8 C 486.62 197.8 483.87 200.55 483.87 203.93 C 483.87 206.93 486.04 209.42 488.89 209.95 L 488.89 213.4 L 471.06 213.4 C 470.44 213.4 469.94 213.9 469.94 214.51 L 469.94 218.97 L 459.91 218.97 C 459.3 218.97 458.8 219.47 458.8 220.09 L 458.8 226.77 C 458.8 227.39 459.3 227.89 459.91 227.89 L 469.94 227.89 L 469.94 230.11 L 459.91 230.11 C 459.3 230.11 458.8 230.61 458.8 231.23 L 458.8 237.91 C 458.8 238.53 459.3 239.03 459.91 239.03 L 469.94 239.03 L 469.94 244.6 C 469.94 245.22 470.44 245.71 471.06 245.71 L 488.89 245.71 L 488.89 248.05 C 486.04 248.58 483.87 251.07 483.87 254.07 C 483.87 257.45 486.62 260.2 490 260.2 C 493.38 260.2 496.13 257.45 496.13 254.07 C 496.13 251.07 493.96 248.58 491.11 248.05 L 491.11 245.71 L 508.94 245.71 C 509.56 245.71 510.06 245.22 510.06 244.6 L 510.06 239.06 L 507.83 239.06 Z M 486.1 203.93 C 486.1 201.78 487.85 200.03 490 200.03 C 492.15 200.03 493.9 201.78 493.9 203.93 C 493.9 206.08 492.15 207.83 490 207.83 C 487.85 207.83 486.1 206.08 486.1 203.93 Z M 461.03 225.66 L 461.03 221.2 L 481.09 221.2 L 481.09 225.66 Z M 461.03 236.8 L 461.03 232.34 L 481.09 232.34 L 481.09 236.8 Z M 493.9 254.07 C 493.9 256.22 492.15 257.97 490 257.97 C 487.85 257.97 486.1 256.22 486.1 254.07 C 486.1 251.92 487.85 250.17 490 250.17 C 492.15 250.17 493.9 251.92 493.9 254.07 Z M 520.09 223.43 L 494.46 223.43 C 493.84 223.43 493.34 223.93 493.34 224.54 L 493.34 234.57 C 493.34 235.19 493.84 235.69 494.46 235.69 L 520.09 235.69 C 520.7 235.69 521.2 235.19 521.2 234.57 L 521.2 224.54 C 521.2 223.93 520.7 223.43 520.09 223.43 Z M 495.57 233.46 L 495.57 225.66 L 518.97 225.66 L 518.97 233.46 Z" fill="#ffffff" stroke="none" pointer-events="all" style="fill: rgb(255, 255, 255);"/></g><g><g><switch><foreignObject style="overflow: visible; text-align: left;" pointer-events="none" width="100%" height="100%" requiredFeatures="http://www.w3.org/TR/SVG11/feature#Extensibility"><div xmlns="http://www.w3.org/1999/xhtml" style="display: flex; align-items: unsafe flex-start; justify-content: unsafe center; width: 1px; height: 1px; padding-top: 275px; margin-left: 490px;"><div style="box-sizing: border-box; font-size: 0; text-align: center; color: #232F3E; "><div style="display: inline-block; font-size: 17px; font-family: 'Architects Daughter'; color: #232F3E; line-height: 1.2; pointer-events: all; white-space: nowrap; ">Populate Draft Data<div>Step Function</div></div></div></div></foreignObject><text x="490" y="292" fill="#232F3E" font-family="'Architects Daughter'" font-size="17px" text-anchor="middle">Populate...</text></switch></g></g></g><g data-cell-id="gTSoOkBcEcdVYQ-6uKTe-35"><g><path d="M 30 30 L 880 30" fill="none" stroke="none" pointer-events="stroke"/><path d="M 30 30 C 247.64 28.2 467.52 28.84 880 30 M 30 30 C 270.95 25.85 511.43 26.64 880 30" fill="none" stroke="#000000" stroke-width="2" stroke-linejoin="round" stroke-linecap="round" stroke-miterlimit="10" stroke-dasharray="2 6" pointer-events="stroke" style="stroke: light-dark(rgb(0, 0, 0), rgb(255, 255, 255));"/></g><g data-cell-id="gTSoOkBcEcdVYQ-6uKTe-36"><g><g><switch><foreignObject style="overflow: visible; text-align: left;" pointer-events="none" width="100%" height="100%" requiredFeatures="http://www.w3.org/TR/SVG11/feature#Extensibility"><div xmlns="http://www.w3.org/1999/xhtml" style="display: flex; align-items: unsafe center; justify-content: unsafe center; width: 1px; height: 1px; padding-top: 28px; margin-left: 463px;"><div style="box-sizing: border-box; font-size: 0; text-align: center; color: #000000; background-color: #ffffff; "><div style="display: inline-block; font-size: 11px; font-family: 'Architects Daughter'; color: light-dark(#000000, #ffffff); line-height: 1.2; pointer-events: all; background-color: light-dark(#ffffff, var(--ge-dark-color, #121212)); white-space: nowrap; "><font style="font-size: 21px;">Sequencing Run </font><span style="font-size: 21px; background-color: light-dark(#ffffff, var(--ge-dark-color, #121212)); color: light-dark(rgb(0, 0, 0), rgb(255, 255, 255));">Started Event / </span><span style="background-color: light-dark(#ffffff, var(--ge-dark-color, #121212)); color: light-dark(rgb(0, 0, 0), rgb(255, 255, 255)); font-size: 21px;">Analysis Glue Creation</span></div></div></div></foreignObject><text x="463" y="31" fill="light-dark(#000000, #ffffff)" font-family="'Architects Daughter'" font-size="11px" text-anchor="middle">Sequencing Run Started Event / Analysis Glue Creation</text></switch></g></g></g></g><g data-cell-id="gTSoOkBcEcdVYQ-6uKTe-37"><g><path d="M 40 420 L 890 420" fill="none" stroke="none" pointer-events="stroke"/><path d="M 40 420 C 259.02 416.98 477.02 414.75 890 420 M 40 420 C 232.06 421.59 425.84 421.13 890 420" fill="none" stroke="#000000" stroke-width="2" stroke-linejoin="round" stroke-linecap="round" stroke-miterlimit="10" stroke-dasharray="2 6" pointer-events="stroke" style="stroke: light-dark(rgb(0, 0, 0), rgb(255, 255, 255));"/></g><g data-cell-id="gTSoOkBcEcdVYQ-6uKTe-38"><g><g><switch><foreignObject style="overflow: visible; text-align: left;" pointer-events="none" width="100%" height="100%" requiredFeatures="http://www.w3.org/TR/SVG11/feature#Extensibility"><div xmlns="http://www.w3.org/1999/xhtml" style="display: flex; align-items: unsafe center; justify-content: unsafe center; width: 1px; height: 1px; padding-top: 418px; margin-left: 473px;"><div style="box-sizing: border-box; font-size: 0; text-align: center; color: #000000; background-color: #ffffff; "><div style="display: inline-block; font-size: 11px; font-family: 'Architects Daughter'; color: light-dark(#000000, #ffffff); line-height: 1.2; pointer-events: all; background-color: light-dark(#ffffff, var(--ge-dark-color, #121212)); white-space: nowrap; "><font style="font-size: 21px;">Post BCLConvert Complete</font></div></div></div></foreignObject><text x="473" y="421" fill="light-dark(#000000, #ffffff)" font-family="'Architects Daughter'" font-size="11px" text-anchor="middle">Post BCLConvert Complete</text></switch></g></g></g></g><g data-cell-id="gTSoOkBcEcdVYQ-6uKTe-43"><g transform="translate(0.5,0.5)"><path d="M 205 560 L 323.63 560" fill="none" stroke="none" pointer-events="stroke"/><path d="M 328.88 560 L 321.88 563.5 L 323.63 560 L 321.88 556.5 Z" fill="none" stroke="none" pointer-events="all"/><path d="M 205 560 C 238.78 564.23 268.17 561.41 323.63 560 M 205 560 C 247.63 559.38 291.08 560.01 323.63 560" fill="none" stroke="#000000" stroke-linejoin="round" stroke-linecap="round" stroke-miterlimit="10" pointer-events="stroke" style="stroke: light-dark(rgb(0, 0, 0), rgb(255, 255, 255));"/><path d="M 328.88 560 C 327.47 560.59 324.56 563.28 321.88 563.5 C 321.74 562.85 321.84 561.52 323.63 560 C 323.69 559.59 322.66 557.74 321.88 556.5 C 324.4 558.69 324.2 559.65 328.88 560" fill="#000000" stroke="none" pointer-events="all" style="fill: light-dark(rgb(0, 0, 0), rgb(255, 255, 255));"/><path d="M 328.88 560 C 328.33 561.51 326.09 561.31 321.88 563.5 M 328.88 560 C 325.74 561.11 322.94 562.65 321.88 563.5 M 321.88 563.5 C 322.11 562.17 323.02 561.59 323.63 560 M 321.88 563.5 C 322.27 562.85 323.14 561.53 323.63 560 M 323.63 560 C 322.5 559.08 321.86 556.96 321.88 556.5 M 323.63 560 C 322.82 559.01 322.59 557.67 321.88 556.5 M 321.88 556.5 C 323.32 557.74 325.73 559.43 328.88 560 M 321.88 556.5 C 323.69 557.01 326.59 559 328.88 560" fill="none" stroke="#000000" stroke-linejoin="round" stroke-linecap="round" stroke-miterlimit="10" pointer-events="all" style="stroke: light-dark(rgb(0, 0, 0), rgb(255, 255, 255));"/></g></g><g data-cell-id="gTSoOkBcEcdVYQ-6uKTe-44"><g transform="translate(0.5,0.5)"><path d="M 650 560 L 743.63 560" fill="none" stroke="none" pointer-events="stroke"/><path d="M 748.88 560 L 741.88 563.5 L 743.63 560 L 741.88 556.5 Z" fill="none" stroke="none" pointer-events="all"/><path d="M 650 560 C 675.06 559.41 695.67 556.99 743.63 560 M 650 560 C 673.77 558.7 695.12 557.77 743.63 560" fill="none" stroke="#000000" stroke-linejoin="round" stroke-linecap="round" stroke-miterlimit="10" pointer-events="stroke" style="stroke: light-dark(rgb(0, 0, 0), rgb(255, 255, 255));"/><path d="M 748.88 560 C 744.34 562.87 741.79 563.38 741.88 563.5 C 742.88 562.25 743.22 561.57 743.63 560 C 742.22 558.3 741.62 557.58 741.88 556.5 C 742.39 558.49 744.14 555.71 748.88 560" fill="#000000" stroke="none" pointer-events="all" style="fill: light-dark(rgb(0, 0, 0), rgb(255, 255, 255));"/><path d="M 748.88 560 C 747.45 560.87 744.28 560.82 741.88 563.5 M 748.88 560 C 747.59 560.91 745.35 561.4 741.88 563.5 M 741.88 563.5 C 742.08 562.84 742.6 560.05 743.63 560 M 741.88 563.5 C 742.69 562.82 743.09 561.51 743.63 560 M 743.63 560 C 743.9 558.1 742.54 558.26 741.88 556.5 M 743.63 560 C 743.14 558.93 742.46 557.01 741.88 556.5 M 741.88 556.5 C 743.24 558.2 747.06 558.66 748.88 560 M 741.88 556.5 C 743.91 556.75 745.04 558.45 748.88 560" fill="none" stroke="#000000" stroke-linejoin="round" stroke-linecap="round" stroke-miterlimit="10" pointer-events="all" style="stroke: light-dark(rgb(0, 0, 0), rgb(255, 255, 255));"/></g></g><g data-cell-id="gTSoOkBcEcdVYQ-6uKTe-45"><g transform="translate(0.5,0.5)"><rect x="330" y="470" width="320" height="180" rx="27" ry="27" fill="none" stroke="none" pointer-events="all"/><path d="M 357 470 C 416.66 469.36 477.36 471.95 623 470 C 637.86 472.58 654.87 473.89 650 497 C 655.25 521 657.1 556.69 650 623 C 646.83 643.08 642.75 648.43 623 650 C 553.05 656.24 479.19 658.73 357 650 C 342.53 645.82 324.42 636.61 330 623 C 327.84 578.18 327.22 535.33 330 497 C 324.81 483.49 335.88 468.05 357 470" fill="#ffffff" stroke="none" pointer-events="all" style="fill: light-dark(#ffffff, var(--ge-dark-color, #121212));"/><path d="M 357 470 C 424.41 470.63 494.57 475.35 623 470 M 357 470 C 440.26 473.4 525.37 474.59 623 470 M 623 470 C 637.46 471.82 651.29 475.63 650 497 M 623 470 C 640.86 471.9 647.34 474.95 650 497 M 650 497 C 648.9 526.37 651.06 562.75 650 623 M 650 497 C 647.87 524.73 648.62 548.6 650 623 M 650 623 C 649.4 644.73 640.43 653.39 623 650 M 650 623 C 654.09 642.57 641.6 650.16 623 650 M 623 650 C 540.91 652.85 459.08 648.21 357 650 M 623 650 C 531.26 646.6 437.71 646.72 357 650 M 357 650 C 342.17 650.07 328.25 642.8 330 623 M 357 650 C 339.38 649.33 332.71 644.94 330 623 M 330 623 C 327.84 594.05 329.93 563.84 330 497 M 330 623 C 329.39 584.96 327.69 545.96 330 497 M 330 497 C 333.19 481.52 338.84 467.54 357 470 M 330 497 C 330.74 483.44 343.11 466.68 357 470" fill="none" stroke="#000000" stroke-linejoin="round" stroke-linecap="round" stroke-miterlimit="10" pointer-events="all" style="stroke: light-dark(rgb(0, 0, 0), rgb(255, 255, 255));"/></g><g><g><switch><foreignObject style="overflow: visible; text-align: left;" pointer-events="none" width="100%" height="100%" requiredFeatures="http://www.w3.org/TR/SVG11/feature#Extensibility"><div xmlns="http://www.w3.org/1999/xhtml" style="display: flex; align-items: unsafe flex-start; justify-content: unsafe center; width: 318px; height: 1px; padding-top: 477px; margin-left: 331px;"><div style="box-sizing: border-box; font-size: 0; text-align: center; color: #000000; "><div style="display: inline-block; font-size: 24px; font-family: 'Architects Daughter'; color: light-dark(#000000, #ffffff); line-height: 1.2; pointer-events: all; white-space: normal; word-wrap: normal; ">Validate Draft Payload</div></div></div></foreignObject><text x="490" y="501" fill="light-dark(#000000, #ffffff)" font-family="'Architects Daughter'" font-size="24px" text-anchor="middle">Validate Draft Payload</text></switch></g></g></g><g data-cell-id="gTSoOkBcEcdVYQ-6uKTe-46"><g transform="translate(0.5,0.5)"><path d="M 451 521 L 529 521 L 529 599 L 451 599 Z" fill="#e7157b" stroke="none" pointer-events="all" style="fill: rgb(231, 21, 123);"/><path d="M 507.83 574.49 L 472.17 574.49 L 472.17 570.03 L 482.2 570.03 C 482.82 570.03 483.31 569.53 483.31 568.91 L 483.31 562.23 C 483.31 561.61 482.82 561.11 482.2 561.11 L 472.17 561.11 L 472.17 558.89 L 482.2 558.89 C 482.82 558.89 483.31 558.39 483.31 557.77 L 483.31 551.09 C 483.31 550.47 482.82 549.97 482.2 549.97 L 472.17 549.97 L 472.17 546.63 L 507.83 546.63 L 507.83 551.09 L 510.06 551.09 L 510.06 545.51 C 510.06 544.9 509.56 544.4 508.94 544.4 L 491.11 544.4 L 491.11 540.95 C 493.96 540.42 496.13 537.93 496.13 534.93 C 496.13 531.55 493.38 528.8 490 528.8 C 486.62 528.8 483.87 531.55 483.87 534.93 C 483.87 537.93 486.04 540.42 488.89 540.95 L 488.89 544.4 L 471.06 544.4 C 470.44 544.4 469.94 544.9 469.94 545.51 L 469.94 549.97 L 459.91 549.97 C 459.3 549.97 458.8 550.47 458.8 551.09 L 458.8 557.77 C 458.8 558.39 459.3 558.89 459.91 558.89 L 469.94 558.89 L 469.94 561.11 L 459.91 561.11 C 459.3 561.11 458.8 561.61 458.8 562.23 L 458.8 568.91 C 458.8 569.53 459.3 570.03 459.91 570.03 L 469.94 570.03 L 469.94 575.6 C 469.94 576.22 470.44 576.71 471.06 576.71 L 488.89 576.71 L 488.89 579.05 C 486.04 579.58 483.87 582.07 483.87 585.07 C 483.87 588.45 486.62 591.2 490 591.2 C 493.38 591.2 496.13 588.45 496.13 585.07 C 496.13 582.07 493.96 579.58 491.11 579.05 L 491.11 576.71 L 508.94 576.71 C 509.56 576.71 510.06 576.22 510.06 575.6 L 510.06 570.06 L 507.83 570.06 Z M 486.1 534.93 C 486.1 532.78 487.85 531.03 490 531.03 C 492.15 531.03 493.9 532.78 493.9 534.93 C 493.9 537.08 492.15 538.83 490 538.83 C 487.85 538.83 486.1 537.08 486.1 534.93 Z M 461.03 556.66 L 461.03 552.2 L 481.09 552.2 L 481.09 556.66 Z M 461.03 567.8 L 461.03 563.34 L 481.09 563.34 L 481.09 567.8 Z M 493.9 585.07 C 493.9 587.22 492.15 588.97 490 588.97 C 487.85 588.97 486.1 587.22 486.1 585.07 C 486.1 582.92 487.85 581.17 490 581.17 C 492.15 581.17 493.9 582.92 493.9 585.07 Z M 520.09 554.43 L 494.46 554.43 C 493.84 554.43 493.34 554.93 493.34 555.54 L 493.34 565.57 C 493.34 566.19 493.84 566.69 494.46 566.69 L 520.09 566.69 C 520.7 566.69 521.2 566.19 521.2 565.57 L 521.2 555.54 C 521.2 554.93 520.7 554.43 520.09 554.43 Z M 495.57 564.46 L 495.57 556.66 L 518.97 556.66 L 518.97 564.46 Z" fill="#ffffff" stroke="none" pointer-events="all" style="fill: rgb(255, 255, 255);"/></g><g><g><switch><foreignObject style="overflow: visible; text-align: left;" pointer-events="none" width="100%" height="100%" requiredFeatures="http://www.w3.org/TR/SVG11/feature#Extensibility"><div xmlns="http://www.w3.org/1999/xhtml" style="display: flex; align-items: unsafe flex-start; justify-content: unsafe center; width: 1px; height: 1px; padding-top: 606px; margin-left: 490px;"><div style="box-sizing: border-box; font-size: 0; text-align: center; color: #232F3E; "><div style="display: inline-block; font-size: 17px; font-family: 'Architects Daughter'; color: #232F3E; line-height: 1.2; pointer-events: all; white-space: nowrap; ">Validate Data<br />Step Function</div></div></div></foreignObject><text x="490" y="623" fill="#232F3E" font-family="'Architects Daughter'" font-size="17px" text-anchor="middle">Validate...</text></switch></g></g></g><g data-cell-id="gTSoOkBcEcdVYQ-6uKTe-49"><g transform="translate(0.5,0.5)"><rect x="750" y="510" width="100" height="100" fill="none" stroke="none" pointer-events="all"/><path d="M 815.19 530.19 L 811 528.4 L 817.38 513.44 L 821.58 515.23 Z M 828.23 541.65 L 825.49 538.01 L 838.58 528.18 L 841.32 531.83 Z M 833.14 553.51 L 849.43 551.45 L 850 555.97 L 833.71 558.03 Z M 831.91 570.73 L 847.03 576.99 L 845.29 581.21 L 830.16 574.95 Z M 822.14 585.08 L 832.05 597.98 L 828.43 600.76 L 818.52 587.86 Z M 806.44 592.73 L 808.48 608.81 L 803.95 609.38 L 801.91 593.3 Z M 784.81 589.81 L 789 591.6 L 782.62 606.56 L 778.42 604.77 Z M 771.77 578.34 L 774.51 581.99 L 761.42 591.82 L 758.68 588.17 Z M 766.86 566.49 L 750.57 568.55 L 750 564.03 L 766.29 561.97 Z M 768.09 549.26 L 752.97 543.01 L 754.71 538.79 L 769.84 545.05 Z M 777.86 534.92 L 767.95 522.02 L 771.57 519.24 L 781.48 532.14 Z M 793.56 527.27 L 791.52 511.19 L 796.05 510.62 L 798.09 526.7 Z M 809.4 576.77 L 789.64 576.77 L 779.76 559.66 L 789.64 542.55 L 809.4 542.55 L 819.27 559.66 Z M 823.88 558.52 L 812.69 539.13 C 812.28 538.42 811.53 537.99 810.71 537.99 L 788.33 537.99 C 787.51 537.99 786.76 538.42 786.35 539.13 L 775.15 558.52 C 774.75 559.23 774.75 560.09 775.15 560.8 L 786.35 580.19 C 786.76 580.9 787.51 581.33 788.33 581.33 L 810.71 581.33 C 811.53 581.33 812.28 580.9 812.69 580.19 L 823.88 560.8 C 824.29 560.09 824.29 559.23 823.88 558.52 Z" fill="#e7157b" stroke="none" pointer-events="all" style="fill: rgb(231, 21, 123);"/></g><g><g><switch><foreignObject style="overflow: visible; text-align: left;" pointer-events="none" width="100%" height="100%" requiredFeatures="http://www.w3.org/TR/SVG11/feature#Extensibility"><div xmlns="http://www.w3.org/1999/xhtml" style="display: flex; align-items: unsafe flex-start; justify-content: unsafe center; width: 1px; height: 1px; padding-top: 617px; margin-left: 800px;"><div style="box-sizing: border-box; font-size: 0; text-align: center; color: #232F3E; "><div style="display: inline-block; font-size: 14px; font-family: 'Architects Daughter'; color: #232F3E; line-height: 1.2; pointer-events: all; white-space: nowrap; ">New <div>Dragen WGTS DNA<br />WRU Ready Event</div></div></div></div></foreignObject><text x="800" y="631" fill="#232F3E" font-family="'Architects Daughter'" font-size="14px" text-anchor="middle">New...</text></switch></g></g></g><g data-cell-id="gTSoOkBcEcdVYQ-6uKTe-50"><g transform="translate(0.5,0.5)"><path d="M 115 475 L 205 560 L 115 645 L 25 560 Z" fill="none" stroke="none" pointer-events="all"/><path d="M 115 475 C 135.36 490.02 150.81 518.16 205 560 C 177.54 586.23 151.22 604.85 115 645 C 86.54 611.87 61.12 596.09 25 560 C 48.27 545.89 64.62 525.74 115 475" fill="#ffffff" stroke="none" pointer-events="all" style="fill: light-dark(#ffffff, var(--ge-dark-color, #121212));"/><path d="M 115 475 C 142.29 495.52 162.41 517.74 205 560 M 115 475 C 150.69 505.62 185.18 539.32 205 560 M 205 560 C 175.87 588.04 148.39 616.14 115 645 M 205 560 C 172.27 590.36 139.42 619.44 115 645 M 115 645 C 92.38 622.8 66.03 598.62 25 560 M 115 645 C 89.21 620.94 61.7 592.77 25 560 M 25 560 C 56.65 528.1 89.77 496.06 115 475 M 25 560 C 53.54 527.93 83.73 500.33 115 475" fill="none" stroke="#000000" stroke-linejoin="round" stroke-linecap="round" stroke-miterlimit="10" pointer-events="all" style="stroke: light-dark(rgb(0, 0, 0), rgb(255, 255, 255));"/></g><g><g><switch><foreignObject style="overflow: visible; text-align: left;" pointer-events="none" width="100%" height="100%" requiredFeatures="http://www.w3.org/TR/SVG11/feature#Extensibility"><div xmlns="http://www.w3.org/1999/xhtml" style="display: flex; align-items: unsafe center; justify-content: unsafe center; width: 178px; height: 1px; padding-top: 560px; margin-left: 26px;"><div style="box-sizing: border-box; font-size: 0; text-align: center; color: #000000; "><div style="display: inline-block; font-size: 14px; font-family: 'Architects Daughter'; color: light-dark(#000000, #ffffff); line-height: 1.2; pointer-events: all; white-space: normal; word-wrap: normal; "><font style="font-size: 15px;">Completed <br />Dragen WGTS DNA<br />WRSC Draft Event</font></div></div></div></foreignObject><text x="115" y="564" fill="light-dark(#000000, #ffffff)" font-family="'Architects Daughter'" font-size="14px" text-anchor="middle">Completed...</text></switch></g></g></g></g></g></g><switch><g requiredFeatures="http://www.w3.org/TR/SVG11/feature#Extensibility"/><a transform="translate(0,-5)" xlink:href="https://www.drawio.com/doc/faq/svg-export-text-problems" target="_blank"><text text-anchor="middle" font-size="10px" x="50%" y="100%">Text is not SVG - cannot display</text></a></switch></svg>
